<svg width="472" height="138" viewBox="0 0 472 138" fill="none" xmlns="http://www.w3.org/2000/svg">
<path d="M72 85.9491L72 -1.96701e-06C47.1518 -8.80865e-07 27 20.0936 27 44.8699L27 85.9491C27 88.1913 28.8263 90 31.0627 90L67.9249 90C70.1737 90 71.9876 88.179 71.9876 85.9491L72 85.9491Z" fill="#1D2088"/>
<path d="M13.1281 120.473C12.9875 119.225 11.8449 118.504 10.3156 118.504C8.62812 118.504 7.5207 119.383 7.5207 120.596C7.5207 121.932 9.01484 122.424 9.98164 122.67L11.2473 123.021C12.6184 123.373 14.8508 124.164 14.8508 126.537C14.8508 128.611 13.1809 130.229 10.2277 130.229C7.48555 130.229 5.78047 128.805 5.63984 126.695H7.25703C7.39766 128.119 8.71601 128.787 10.2277 128.787C11.9855 128.787 13.3039 127.891 13.3039 126.502C13.3039 125.271 12.1262 124.797 10.7902 124.41L9.22578 123.988C7.22187 123.408 5.99141 122.389 5.99141 120.666C5.99141 118.521 7.90742 117.098 10.3684 117.098C12.8293 117.098 14.6047 118.539 14.675 120.473H13.1281ZM20.4673 130.193C17.7603 130.193 16.108 128.137 16.108 125.271C16.108 122.371 17.8306 120.332 20.4322 120.332C22.4712 120.332 23.983 121.527 24.2291 123.338H22.7173C22.5064 122.459 21.733 121.668 20.4673 121.668C18.7623 121.668 17.6197 123.074 17.6197 125.219C17.6197 127.434 18.7271 128.84 20.4673 128.84C21.5923 128.84 22.4537 128.242 22.7173 127.188H24.2291C23.983 128.893 22.5943 130.193 20.4673 130.193ZM27.2441 124.27V130H25.7323V117.273H27.2441V121.949H27.3671C27.8066 120.965 28.6679 120.332 30.1796 120.332C32.1308 120.332 33.4316 121.492 33.4316 123.936V130H31.9198V124.041C31.9198 122.547 31.0937 121.686 29.7226 121.686C28.2987 121.686 27.2441 122.617 27.2441 124.27ZM39.3997 130.193C36.7981 130.193 35.0403 128.242 35.0403 125.271C35.0403 122.301 36.7981 120.332 39.3997 120.332C41.9837 120.332 43.7239 122.301 43.7239 125.271C43.7239 128.242 41.9837 130.193 39.3997 130.193ZM39.3997 128.857C41.3157 128.857 42.2122 127.17 42.2122 125.271C42.2122 123.373 41.3157 121.668 39.3997 121.668C37.4485 121.668 36.552 123.373 36.552 125.271C36.552 127.17 37.4485 128.857 39.3997 128.857ZM46.862 117.273V130H45.3502V117.273H46.862ZM48.4531 127.293C48.4531 125.096 50.3867 124.604 52.0391 124.48C52.6455 124.437 54.1924 124.357 54.623 124.34V123.566C54.623 122.354 53.9023 121.65 52.4609 121.65C51.248 121.65 50.5273 122.213 50.3164 122.934H48.7344C48.9277 121.404 50.4219 120.332 52.5312 120.332C53.7793 120.332 56.1172 120.701 56.1172 123.707V130H54.623V128.699H54.5527C54.2363 129.35 53.3574 130.229 51.7051 130.229C49.8945 130.229 48.4531 129.156 48.4531 127.293ZM49.9648 127.363C49.9648 128.365 50.8086 128.875 51.9688 128.875C53.6738 128.875 54.623 127.732 54.623 126.537V125.57C54.1748 125.605 52.6719 125.72 52.2148 125.746C50.8438 125.834 49.9648 126.326 49.9648 127.363ZM58.183 130V120.455H59.642V121.914H59.7474C60.099 120.947 61.0834 120.297 62.2084 120.297C62.4369 120.297 62.8236 120.314 62.9994 120.332V121.861C62.8939 121.826 62.472 121.756 62.0853 121.756C60.7142 121.756 59.6947 122.705 59.6947 123.988V130H58.183ZM69.4245 122.934C69.2136 122.143 68.6159 121.615 67.4909 121.615C66.3132 121.615 65.4695 122.248 65.4695 123.057C65.4695 123.689 65.9792 124.129 67.1042 124.393L68.528 124.744C70.2331 125.148 71.0769 125.992 71.0769 127.328C71.0769 128.98 69.7234 130.193 67.3327 130.193C65.1882 130.193 63.905 129.244 63.6589 127.504H65.2409C65.4167 128.436 66.1023 128.875 67.2976 128.875C68.6511 128.875 69.5124 128.312 69.5124 127.416C69.5124 126.748 69.0378 126.291 67.948 126.045L66.5066 125.711C64.8366 125.324 63.9577 124.41 63.9577 123.145C63.9577 121.51 65.3816 120.332 67.4909 120.332C69.4597 120.332 70.7077 121.387 70.9011 122.934H69.4245ZM74.1973 124.27V130H72.6856V117.273H74.1973V121.949H74.3204C74.7598 120.965 75.6212 120.332 77.1329 120.332C79.0841 120.332 80.3848 121.492 80.3848 123.936V130H78.8731V124.041C78.8731 122.547 78.047 121.686 76.6759 121.686C75.252 121.686 74.1973 122.617 74.1973 124.27ZM82.4506 130V120.455H83.9623V130H82.4506ZM83.2065 118.873C82.6264 118.873 82.1518 118.434 82.1518 117.871C82.1518 117.309 82.6264 116.869 83.2065 116.869C83.7866 116.869 84.2787 117.309 84.2787 117.871C84.2787 118.434 83.7866 118.873 83.2065 118.873ZM86.0105 133.586V120.455H87.4695V121.967H87.6453C87.9617 121.457 88.5594 120.332 90.4051 120.332C92.7957 120.332 94.4656 122.23 94.4656 125.254C94.4656 128.277 92.7957 130.193 90.4227 130.193C88.5945 130.193 87.9617 129.068 87.6453 128.541H87.5223V133.586H86.0105ZM87.4871 125.219C87.4871 127.363 88.4539 128.84 90.2117 128.84C92.0223 128.84 92.9539 127.258 92.9539 125.219C92.9539 123.232 92.0398 121.686 90.2117 121.686C88.4187 121.686 87.4871 123.109 87.4871 125.219Z" fill="#444444"/>
<path d="M152 44.9938C152 20.1422 172.145 0 197 0V90C172.145 90 152 69.8578 152 45.0062V44.9938Z" fill="#1D2088"/>
<path d="M137.326 130H135.674L140.332 117.273H142.002L146.66 130H144.99L143.725 126.414H138.61L137.326 130ZM139.084 125.025H143.233L141.211 119.33H141.106L139.084 125.025ZM151.714 130.193C149.007 130.193 147.355 128.137 147.355 125.271C147.355 122.371 149.078 120.332 151.679 120.332C153.718 120.332 155.23 121.527 155.476 123.338H153.964C153.754 122.459 152.98 121.668 151.714 121.668C150.009 121.668 148.867 123.074 148.867 125.219C148.867 127.434 149.974 128.84 151.714 128.84C152.839 128.84 153.701 128.242 153.964 127.188H155.476C155.23 128.893 153.841 130.193 151.714 130.193ZM156.522 127.293C156.522 125.096 158.456 124.604 160.108 124.48C160.715 124.437 162.262 124.357 162.692 124.34V123.566C162.692 122.354 161.972 121.65 160.53 121.65C159.317 121.65 158.597 122.213 158.386 122.934H156.804C156.997 121.404 158.491 120.332 160.601 120.332C161.849 120.332 164.186 120.701 164.186 123.707V130H162.692V128.699H162.622C162.306 129.35 161.427 130.229 159.774 130.229C157.964 130.229 156.522 129.156 156.522 127.293ZM158.034 127.363C158.034 128.365 158.878 128.875 160.038 128.875C161.743 128.875 162.692 127.732 162.692 126.537V125.57C162.244 125.605 160.741 125.72 160.284 125.746C158.913 125.834 158.034 126.326 158.034 127.363ZM169.856 130.193C167.483 130.193 165.795 128.277 165.795 125.254C165.795 122.23 167.483 120.332 169.873 120.332C171.719 120.332 172.317 121.457 172.633 121.967H172.739V117.273H174.268V130H172.791V128.541H172.633C172.299 129.068 171.684 130.193 169.856 130.193ZM170.067 128.84C171.807 128.84 172.791 127.363 172.791 125.219C172.791 123.109 171.842 121.686 170.067 121.686C168.239 121.686 167.325 123.232 167.325 125.219C167.325 127.258 168.256 128.84 170.067 128.84ZM180.535 130.193C177.775 130.193 176.07 128.242 176.07 125.307C176.07 122.371 177.793 120.332 180.394 120.332C182.398 120.332 184.507 121.562 184.507 125.096V125.729H177.582C177.652 127.75 178.83 128.857 180.535 128.857C181.677 128.857 182.398 128.365 182.75 127.768H184.367C183.91 129.209 182.504 130.193 180.535 130.193ZM177.599 124.445H182.978C182.978 122.846 181.959 121.668 180.394 121.668C178.742 121.668 177.687 122.969 177.599 124.445ZM186.116 130V120.455H187.575V121.949H187.698C188.103 120.93 189.017 120.332 190.265 120.332C191.513 120.332 192.356 120.93 192.814 121.949H192.919C193.411 120.965 194.413 120.332 195.784 120.332C197.489 120.332 198.702 121.369 198.702 123.619V130H197.19V123.637C197.19 122.23 196.294 121.686 195.257 121.686C193.921 121.686 193.165 122.582 193.165 123.795V130H191.636V123.479C191.636 122.406 190.862 121.686 189.772 121.686C188.63 121.686 187.628 122.652 187.628 124.041V130H186.116ZM200.768 130V120.455H202.28V130H200.768ZM201.524 118.873C200.944 118.873 200.469 118.434 200.469 117.871C200.469 117.309 200.944 116.869 201.524 116.869C202.104 116.869 202.596 117.309 202.596 117.871C202.596 118.434 202.104 118.873 201.524 118.873ZM208.23 130.193C205.523 130.193 203.871 128.137 203.871 125.271C203.871 122.371 205.594 120.332 208.195 120.332C210.234 120.332 211.746 121.527 211.992 123.338H210.48C210.269 122.459 209.496 121.668 208.23 121.668C206.525 121.668 205.383 123.074 205.383 125.219C205.383 127.434 206.49 128.84 208.23 128.84C209.355 128.84 210.217 128.242 210.48 127.188H211.992C211.746 128.893 210.357 130.193 208.23 130.193Z" fill="#444444"/>
<path d="M276 85.9491L276 0C300.848 -1.08615e-06 321 20.0936 321 44.8699L321 85.9491C321 88.1913 319.174 90 316.937 90L280.075 90C277.826 90 276.012 88.179 276.012 85.9491L276 85.9491Z" fill="#1D2088"/>
<path d="M279.999 121.281C279.63 119.523 278.118 118.574 276.448 118.574C274.145 118.574 272.352 120.35 272.352 123.637C272.352 126.924 274.145 128.699 276.448 128.699C278.118 128.699 279.612 127.75 279.999 126.01H281.581C281.124 128.611 279.032 130.176 276.448 130.176C273.179 130.176 270.823 127.662 270.823 123.637C270.823 119.611 273.179 117.098 276.448 117.098C279.015 117.098 281.106 118.645 281.581 121.281H279.999ZM289.272 126.08V120.455H290.766V130H289.272V128.383H289.166C288.709 129.35 287.778 130.123 286.336 130.123C284.526 130.123 283.242 128.945 283.242 126.52V120.455H284.754V126.414C284.754 127.785 285.616 128.664 286.828 128.664C287.901 128.664 289.272 127.855 289.272 126.08ZM294.343 117.273V130H292.832V117.273H294.343ZM300.558 120.455V121.721H298.554V127.258C298.554 128.488 299.151 128.682 299.802 128.682C300.083 128.682 300.47 128.664 300.698 128.646V130.053C300.47 130.088 300.083 130.123 299.644 130.123C298.378 130.123 297.024 129.332 297.024 127.645V121.721H295.583V120.455H297.024V118.17H298.554V120.455H300.558ZM308.178 126.08V120.455H309.672V130H308.178V128.383H308.073C307.616 129.35 306.684 130.123 305.243 130.123C303.432 130.123 302.149 128.945 302.149 126.52V120.455H303.661V126.414C303.661 127.785 304.522 128.664 305.735 128.664C306.807 128.664 308.178 127.855 308.178 126.08ZM311.738 130V120.455H313.197V121.914H313.302C313.654 120.947 314.638 120.297 315.763 120.297C315.992 120.297 316.379 120.314 316.554 120.332V121.861C316.449 121.826 316.027 121.756 315.64 121.756C314.269 121.756 313.25 122.705 313.25 123.988V130H311.738ZM321.362 130.193C318.603 130.193 316.898 128.242 316.898 125.307C316.898 122.371 318.62 120.332 321.222 120.332C323.226 120.332 325.335 121.562 325.335 125.096V125.729H318.409C318.48 127.75 319.657 128.857 321.362 128.857C322.505 128.857 323.226 128.365 323.577 127.768H325.194C324.737 129.209 323.331 130.193 321.362 130.193ZM318.427 124.445H323.806C323.806 122.846 322.786 121.668 321.222 121.668C319.569 121.668 318.515 122.969 318.427 124.445Z" fill="#444444"/>
<path d="M445 45.0062C445 69.8578 424.855 90 400 90V0C424.855 0 445 20.1422 445 44.9938V45.0062Z" fill="#1D2088"/>
<path d="M383.665 130V117.273H387.989C390.977 117.273 392.331 119.049 392.331 121.316C392.331 123.566 390.977 125.377 388.007 125.377H385.247V130H383.665ZM385.247 123.971H387.936C389.958 123.971 390.766 122.828 390.766 121.316C390.766 119.787 389.958 118.68 387.919 118.68H385.247V123.971ZM400.022 126.08V120.455H401.516V130H400.022V128.383H399.916C399.459 129.35 398.528 130.123 397.086 130.123C395.276 130.123 393.992 128.945 393.992 126.52V120.455H395.504V126.414C395.504 127.785 396.365 128.664 397.578 128.664C398.651 128.664 400.022 127.855 400.022 126.08ZM403.775 130V117.273H405.287V121.967H405.41C405.744 121.457 406.306 120.332 408.17 120.332C410.56 120.332 412.248 122.23 412.248 125.254C412.248 128.277 410.56 130.193 408.187 130.193C406.359 130.193 405.744 129.068 405.41 128.541H405.234V130H403.775ZM405.252 125.219C405.252 127.363 406.218 128.84 407.959 128.84C409.769 128.84 410.718 127.258 410.718 125.219C410.718 123.232 409.804 121.686 407.959 121.686C406.201 121.686 405.252 123.109 405.252 125.219ZM415.368 117.273V130H413.856V117.273H415.368ZM417.416 130V120.455H418.928V130H417.416ZM418.172 118.873C417.592 118.873 417.118 118.434 417.118 117.871C417.118 117.309 417.592 116.869 418.172 116.869C418.752 116.869 419.244 117.309 419.244 117.871C419.244 118.434 418.752 118.873 418.172 118.873ZM426.285 122.934C426.074 122.143 425.476 121.615 424.351 121.615C423.174 121.615 422.33 122.248 422.33 123.057C422.33 123.689 422.84 124.129 423.965 124.393L425.388 124.744C427.093 125.148 427.937 125.992 427.937 127.328C427.937 128.98 426.584 130.193 424.193 130.193C422.049 130.193 420.765 129.244 420.519 127.504H422.101C422.277 128.436 422.963 128.875 424.158 128.875C425.511 128.875 426.373 128.312 426.373 127.416C426.373 126.748 425.898 126.291 424.808 126.045L423.367 125.711C421.697 125.324 420.818 124.41 420.818 123.145C420.818 121.51 422.242 120.332 424.351 120.332C426.32 120.332 427.568 121.387 427.761 122.934H426.285ZM431.058 124.27V130H429.546V117.273H431.058V121.949H431.181C431.62 120.965 432.481 120.332 433.993 120.332C435.944 120.332 437.245 121.492 437.245 123.936V130H435.733V124.041C435.733 122.547 434.907 121.686 433.536 121.686C432.112 121.686 431.058 122.617 431.058 124.27ZM439.311 130V120.455H440.823V130H439.311ZM440.067 118.873C439.487 118.873 439.012 118.434 439.012 117.871C439.012 117.309 439.487 116.869 440.067 116.869C440.647 116.869 441.139 117.309 441.139 117.871C441.139 118.434 440.647 118.873 440.067 118.873ZM444.383 124.27V130H442.871V120.455H444.33V121.949H444.453C444.91 120.982 445.789 120.332 447.248 120.332C449.181 120.332 450.465 121.51 450.465 123.936V130H448.953V124.041C448.953 122.564 448.144 121.686 446.791 121.686C445.402 121.686 444.383 122.617 444.383 124.27ZM456.398 133.779C454.095 133.779 452.53 132.777 452.355 131.002H453.937C454.148 131.969 455.044 132.461 456.398 132.461C458.032 132.461 459.034 131.758 459.034 130.176V128.242H458.911C458.595 128.77 457.98 129.859 456.134 129.859C453.814 129.859 452.073 128.102 452.073 125.096C452.073 122.16 453.761 120.332 456.151 120.332C457.997 120.332 458.595 121.457 458.946 121.967H459.069V120.455H460.546V130.264C460.546 132.725 458.718 133.779 456.398 133.779ZM456.345 128.506C458.085 128.506 459.069 127.258 459.069 125.148C459.069 123.109 458.12 121.686 456.345 121.686C454.517 121.686 453.603 123.232 453.603 125.148C453.603 127.135 454.534 128.506 456.345 128.506Z" fill="#444444"/>
</svg>
