<svg width="138" height="138" viewBox="0 0 138 138" fill="none" xmlns="http://www.w3.org/2000/svg">
<path d="M9.83257 17.5233V42.3858L0 42.3869V46.1723H9.83257V48.3348C9.81458 53.1205 9.96748 58.8121 12.0327 65.7176C13.1468 69.4434 13.7123 73.1771 13.7123 76.8153V88.049C10.6094 88.5121 8.22266 91.1926 8.22266 94.4217C8.22266 95.5985 8.54195 96.7022 9.09507 97.653C6.86121 98.6657 5.30302 100.916 5.30302 103.523C5.30302 106.131 6.86121 108.38 9.09507 109.394C8.54082 110.344 8.22266 111.448 8.22266 112.625C8.22266 115.157 9.69204 117.352 11.8236 118.405C11.2367 119.376 10.8995 120.513 10.8995 121.727C10.8995 123.931 12.0125 125.88 13.7067 127.042V138H17.4931V128.17H42.3623V138H46.1488V128.17H48.3118C48.5209 128.17 48.7323 128.171 48.9447 128.171C53.5991 128.171 59.0932 127.945 65.6992 125.971C69.4261 124.857 73.1608 124.291 76.8011 124.291H88.0412C88.519 127.375 91.1936 129.744 94.41 129.744C95.5871 129.744 96.6911 129.424 97.6422 128.871C98.6551 131.105 100.906 132.662 103.514 132.662C106.122 132.662 108.372 131.105 109.386 128.871C110.337 129.426 111.441 129.744 112.618 129.744C115.151 129.744 117.347 128.275 118.4 126.144C119.371 126.73 120.508 127.068 121.722 127.068C123.927 127.068 125.876 125.955 127.039 124.261H138V120.476H128.167V95.612H138V91.8265H128.167V89.6641C128.185 84.8784 128.033 79.1868 125.967 72.2813C124.853 68.5555 124.288 64.8218 124.288 61.1825V49.9488C127.391 49.4857 129.777 46.8051 129.777 43.576C129.777 42.3993 129.458 41.2956 128.905 40.3447C131.139 39.3321 132.697 37.082 132.697 34.4744C132.697 31.8669 131.139 29.6179 128.905 28.6041C129.459 27.6533 129.777 26.5496 129.777 25.3728C129.777 22.8406 128.308 20.6455 126.176 19.5924C126.763 18.6213 127.101 17.485 127.101 16.2712C127.101 14.0672 125.988 12.1183 124.293 10.9561V0H120.507V9.82993H95.6377V0H91.8512V9.82993H89.6882C84.9012 9.81082 79.2069 9.9648 72.3008 12.0295C68.5739 13.1433 64.8392 13.7086 61.1989 13.7086H49.9588C49.481 10.6245 46.8065 8.25642 43.59 8.25642C42.4129 8.25642 41.3089 8.57562 40.3578 9.12859C39.3449 6.89534 37.0942 5.33756 34.4859 5.33756C31.8777 5.33756 29.6281 6.89534 28.6141 9.12859C27.663 8.57449 26.559 8.25642 25.3819 8.25642C22.849 8.25642 20.6533 9.7254 19.5999 11.8564C18.6286 11.2697 17.492 10.9325 16.2778 10.9325C14.0732 10.9325 12.1238 12.0452 10.9613 13.739H0V17.5244H9.83257V17.5233ZM123.331 46.2364H93.7433C91.1655 46.2364 89.0676 48.3337 89.0676 50.9108C89.0676 52.8125 90.2098 54.4512 91.8434 55.1807V57.1329H89.6871C80.8686 57.1329 72.9989 51.7965 69.6374 43.5378L69.1574 42.3588H50.0341V17.4952H61.1978C65.2046 17.4952 69.3047 16.877 73.3834 15.6575C79.7938 13.7412 85.1564 13.5996 89.6792 13.6165H91.849H120.653C122.119 13.6165 123.312 14.809 123.312 16.2746C123.312 17.7402 122.119 18.9327 120.653 18.9327H110.734V22.7181H123.329C124.795 22.7181 125.988 23.9106 125.988 25.3762C125.988 26.8418 124.796 28.0332 123.331 28.0343H120.653H112.201V31.8197H123.329C123.329 31.8197 123.33 31.8197 123.331 31.8197H126.248C127.714 31.8197 128.907 33.0122 128.907 34.4778C128.907 35.9434 127.714 37.1359 126.248 37.1359H123.331C123.331 37.1359 123.33 37.1359 123.329 37.1359H112.201V40.9213H120.653H123.331C124.796 40.9213 125.988 42.1149 125.988 43.5794C125.988 45.045 124.795 46.2375 123.329 46.2375L123.331 46.2364ZM46.1555 71.3709C55.1753 67.1787 60.9336 58.2715 60.9336 48.3348V46.1431H66.6447C70.8381 55.1604 79.7477 60.9172 89.6871 60.9172H91.8434V66.6291C82.8236 70.8213 77.0653 79.7285 77.0653 89.6652V91.8569H71.3542C67.1608 82.8396 58.2512 77.0828 48.3118 77.0817H46.1555V71.3698V71.3709ZM91.7512 123.3V93.7204C91.7512 91.1432 89.6534 89.0459 87.0755 89.0459C85.1598 89.0459 83.5105 90.2036 82.7888 91.8558H80.8517V89.6641C80.8517 80.848 86.1896 72.9804 94.4505 69.6199L95.6298 69.1399V50.0196H120.499V61.1825C120.499 65.1882 121.117 69.2872 122.337 73.3648C124.254 79.7735 124.396 85.1346 124.379 89.6562V91.8254V105.14V120.623C124.379 122.088 123.186 123.281 121.72 123.281C120.254 123.281 119.061 122.088 119.061 120.623V110.706H115.275V123.298C115.275 124.763 114.082 125.956 112.616 125.956C111.15 125.956 109.957 124.763 109.957 123.299V120.623V112.173H106.171V123.298V126.216C106.171 127.681 104.978 128.874 103.512 128.874C102.046 128.874 100.853 127.681 100.853 126.216V123.297V120.622V112.172H97.0666V120.622V123.297C97.0666 124.762 95.8737 125.955 94.4077 125.955C92.9417 125.955 91.7489 124.762 91.7489 123.297L91.7512 123.3ZM14.6679 91.7636H44.2556C46.8334 91.7636 48.9313 89.6663 48.9313 87.0892C48.9313 85.1875 47.789 83.5499 46.1555 82.8205V80.8682H48.3118C57.1303 80.8682 65 86.2046 68.3614 94.4633L68.8415 95.6423H87.9647V120.506H76.8011C72.7943 120.506 68.6942 121.124 64.6155 122.344C58.2051 124.26 52.8447 124.402 48.3197 124.385H46.1499H17.3458C15.8798 124.385 14.687 123.192 14.687 121.727C14.687 120.261 15.8798 119.068 17.3458 119.068H27.265V115.283H14.6702C13.2042 115.283 12.0113 114.091 12.0113 112.625C12.0113 111.159 13.2042 109.967 14.6702 109.967H17.3458H25.7978V106.181H17.3458H14.6702H11.7505C10.2845 106.181 9.0917 104.989 9.0917 103.523C9.0917 102.058 10.2845 100.865 11.7505 100.865H17.3458H25.7978V97.0798H14.6702C13.2042 97.0798 12.0113 95.8873 12.0113 94.4217C12.0113 92.9561 13.2042 91.7636 14.6702 91.7636H14.6679ZM13.619 48.3415V46.1723V17.376C13.619 15.9104 14.8118 14.7179 16.2778 14.7179C17.7438 14.7179 18.9366 15.9104 18.9366 17.376V27.2925H22.7231V14.7011C22.7231 13.2354 23.9159 12.043 25.3819 12.043C26.8479 12.043 28.0407 13.2354 28.0407 14.7011V17.376V25.8258H31.8271V17.376V14.7011V11.7822C31.8271 10.3166 33.0199 9.1241 34.4859 9.1241C35.952 9.1241 37.1448 10.3166 37.1448 11.7822V17.376V25.8258H40.9312V14.7011C40.9312 13.2354 42.124 12.043 43.59 12.043C45.056 12.043 46.2488 13.2354 46.2488 14.7011V44.2808C46.2488 46.8579 48.3467 48.9552 50.9245 48.9552C52.8402 48.9552 54.4895 47.7976 55.2112 46.1454H57.1483V48.337C57.1483 57.1532 51.8104 65.0207 43.5495 68.3813L42.3702 68.8612V87.9816H17.501V76.8186C17.501 72.813 16.8827 68.714 15.6629 64.6363C13.746 58.2265 13.6033 52.8665 13.6212 48.3449L13.619 48.3415Z" fill="#444444"/>
</svg>
