<svg width="68" height="24" viewBox="0 0 68 24" fill="none" xmlns="http://www.w3.org/2000/svg">
<g clip-path="url(#clip0_1479_792)">
<path d="M19.8544 11.9594C17.863 10.6004 15.3161 11.1557 13.9788 13.1998C12.8612 14.9078 11.1751 15.1205 10.521 15.1205C8.39237 15.1205 6.93559 13.6154 6.50437 12.0584H6.50276C6.49953 12.0422 6.4963 12.0292 6.49307 12.0146C6.48822 11.9967 6.48338 11.9805 6.47853 11.961C6.30895 11.3115 6.26696 11.0014 6.26696 10.3114C6.26696 6.58688 10.0672 2.44022 15.5438 2.44022C21.0204 2.44022 24.3571 6.72976 25.1824 9.11482C25.1695 9.07261 25.1566 9.03039 25.142 8.98818C23.5512 4.32359 19.1518 0.969238 13.9724 0.969238C7.45241 0.969238 2.16797 6.28164 2.16797 12.8377C2.16797 18.6957 6.37194 23.7109 12.2023 23.7109C16.852 23.7109 19.9771 21.0905 21.4113 17.478C22.1994 15.5037 21.6406 13.1819 19.856 11.9594" fill="#6B7684"/>
<path d="M25.2554 9.34363C24.5657 7.01702 21.3356 2.43848 15.5425 2.43848C10.0658 2.43848 6.26562 6.58514 6.26562 10.3097C6.26562 10.9997 6.30762 11.3098 6.4772 11.9592C6.40613 11.6767 6.36899 11.3926 6.36899 11.1133C6.36899 7.23458 10.2322 4.5459 14.2052 4.5459C19.5801 4.5459 23.9375 8.92799 23.9375 14.3313C23.9375 18.5689 21.5117 22.235 17.9893 23.9966V23.9998C22.5324 22.3454 25.7754 17.973 25.7754 12.8376C25.7754 11.6199 25.6123 10.55 25.2554 9.34363Z" fill="#4B5868"/>
<path d="M41.1948 14.6106V18.6453H39.7623V15.8673H32.1829V14.609H36.0444V12.9059H31.4609V11.6492H42.0476V12.9059H37.4641V14.609H41.1948V14.6106ZM41.1948 7.27686V10.7286H39.7623V8.54975H32.3137V7.27686H41.1948Z" fill="#6B7684"/>
<path d="M47.31 7.11944L50.5255 16.5428L49.3256 17.0347L47.3116 11.0908L45.3235 17.124L44.0977 16.6337L47.3116 7.11944H47.31ZM51.1829 7.05449H52.5121V18.5544H51.1829V12.5698H49.7503V11.2726H51.1829V7.05449ZM53.5974 7.0415H54.9782V18.6177H53.5974V7.04313V7.0415Z" fill="#6B7684"/>
<path d="M57.429 8.82448V7.57106H60.2327V6.4248H61.8155V7.57106H64.4852V8.82448H61.5716L64.5918 11.9012L63.626 12.8169L61.0225 10.0925L58.4465 13.0328L57.4532 12.1041L60.4847 8.8261H57.4258L57.429 8.82448ZM66.9804 16.0414C66.9804 16.4473 66.898 16.8256 66.7333 17.1795C66.5653 17.5351 66.3457 17.8484 66.0679 18.1179C65.7901 18.3875 65.4623 18.6034 65.0827 18.7609C64.7032 18.9184 64.2978 18.9963 63.8682 18.9963C63.4386 18.9963 63.0462 18.9184 62.6602 18.7609C62.2742 18.6034 61.9447 18.3891 61.6669 18.1179C61.3891 17.8484 61.1678 17.5367 61.0031 17.1795C60.8368 16.8256 60.7544 16.4473 60.7544 16.0414C60.7544 15.6355 60.8368 15.2588 61.0031 14.9048C61.1678 14.5477 61.3891 14.2343 61.6669 13.9632C61.9447 13.6953 62.2742 13.481 62.6602 13.3235C63.0445 13.1627 63.4467 13.0848 63.8682 13.0848C64.2897 13.0848 64.7016 13.1627 65.0827 13.3235C65.4639 13.481 65.7917 13.6953 66.0679 13.9632C66.3457 14.2327 66.567 14.5477 66.7333 14.9048C66.898 15.2588 66.9804 15.6387 66.9804 16.0414ZM65.5188 16.0284C65.5188 15.5786 65.3557 15.1922 65.0294 14.8708C64.7032 14.5477 64.3107 14.3837 63.8553 14.3837C63.3998 14.3837 63.0235 14.5477 62.7005 14.8708C62.3791 15.1938 62.2176 15.5803 62.2176 16.0284C62.2176 16.4765 62.3791 16.8759 62.7005 17.1941C63.0219 17.5123 63.4079 17.6731 63.8553 17.6731C64.3027 17.6731 64.7032 17.5123 65.0294 17.1941C65.3573 16.8775 65.5188 16.4895 65.5188 16.0284ZM66.5104 12.9793V10.6884H64.4173V9.4041H66.5104V6.57418H67.9995V12.9793H66.5104Z" fill="#6B7684"/>
</g>
<defs>
<clipPath id="clip0_1479_792">
<rect width="68" height="24" fill="white"/>
</clipPath>
</defs>
</svg>
