<svg width="118" height="25" viewBox="0 0 118 25" fill="none" xmlns="http://www.w3.org/2000/svg">
<g opacity="0.5">
<path d="M11.474 5.02269C12.8741 5.02269 14.0028 3.89472 14.0028 2.51135C14.0028 1.12798 12.867 0 11.474 0C10.0811 0 8.94531 1.12798 8.94531 2.51135C8.94531 3.89472 10.0811 5.02269 11.474 5.02269Z" fill="white"/>
<path d="M18.8341 8.59063C18.927 8.47713 18.9984 8.36362 19.0413 8.2643C19.1199 8.07985 19.0842 7.98053 19.0484 7.92378C19.0127 7.85993 18.9413 7.7819 18.7341 7.74642C17.6484 7.59745 15.0768 9.03048 13.2338 10.8253L13.1838 10.875C17.0055 17.1179 15.3339 25.0421 11.5123 24.9995C9.66215 24.9782 8.48351 23.4459 7.99062 21.2893C7.77632 20.3457 7.69775 18.8843 7.74061 18.1891C7.76918 17.7705 7.84776 16.0679 8.42636 14.1028C2.74031 12.8968 -1.26708 8.68286 0.368733 5.96578C1.31879 4.39087 3.24748 4.14967 5.38332 4.80233C6.31195 5.0861 7.28344 5.54013 8.22635 6.13604L8.34064 6.21408C8.27635 6.22827 8.22635 6.26374 8.19064 6.32758C8.16206 6.47656 8.3335 6.51203 8.46208 6.5475C8.3835 6.62554 8.26921 6.69648 8.19064 6.77452C8.19064 6.79817 8.19302 6.82181 8.19778 6.84546C8.24778 6.9164 8.37636 6.9164 8.46208 6.98734C8.53351 6.87384 8.70495 6.90931 8.83353 6.94478C8.90496 6.87384 8.89782 6.74614 8.98354 6.66811C9.0764 6.73905 9.17641 6.80999 9.26927 6.88093C9.24784 6.90931 9.24784 6.94478 9.25499 6.97316C9.3407 7.037 9.41928 7.07248 9.53357 7.07957C9.6693 7.18598 9.79788 7.2924 9.9336 7.39881C9.84074 7.38462 9.75502 7.37043 9.6693 7.33496C9.61929 7.26402 9.53357 7.22855 9.44785 7.19308C9.42404 7.21672 9.39785 7.24274 9.36928 7.27111C9.3407 7.29949 9.31213 7.29949 9.28356 7.27111C9.24784 7.34206 9.16927 7.34915 9.08355 7.34915C9.00497 7.42719 8.9764 7.49813 8.89782 7.57616C8.86925 7.57616 8.84068 7.57616 8.8121 7.57616C8.71924 7.50522 8.59066 7.43428 8.53351 7.32077C8.53351 7.2853 8.52637 7.24983 8.56209 7.20727C8.39065 7.17179 8.26207 7.17889 8.16206 7.02991C8.08349 7.06538 8.13349 7.14342 8.13349 7.17889C8.27636 7.32787 8.21207 7.51232 8.22635 7.6542C8.37636 7.87412 8.66209 7.79608 8.90496 7.75352C8.94782 7.78899 8.99068 7.78899 9.03354 7.78899C9.06212 7.64001 9.13355 7.5265 9.34785 7.56198C9.37166 7.53833 9.39785 7.51232 9.42642 7.48394C9.505 7.44847 9.555 7.51941 9.64072 7.51941C9.69787 7.66839 9.58358 7.7819 9.41928 7.7819C9.38356 7.81737 9.38356 7.85284 9.39071 7.8954C9.52643 8.00182 9.54072 8.15079 9.56215 8.29977C9.47643 8.29977 9.57643 8.41328 9.49071 8.41328C9.49071 8.44875 9.49786 8.48422 9.505 8.52679C9.46929 8.56226 9.42642 8.60482 9.39071 8.64029C9.30499 8.64029 9.22641 8.68286 9.14784 8.71833C9.14784 8.74198 9.15022 8.76562 9.15498 8.78927C9.20498 8.86021 9.33356 8.86021 9.37642 8.93116C9.3407 8.96663 9.3407 9.0021 9.34785 9.04466C9.18355 9.04466 9.0264 9.15817 8.85496 9.12979C8.84782 9.05885 8.79782 8.98082 8.87639 8.94534L8.83353 8.90987C8.91211 8.83184 8.8121 8.72542 8.84068 8.61192C8.95497 8.53388 8.94782 8.42747 9.06212 8.34943C9.06212 8.32578 9.05974 8.30214 9.05497 8.27849C8.96211 8.17208 8.79067 8.17208 8.62638 8.17208C8.46922 8.28558 8.35493 8.39909 8.19778 8.5126C8.19778 8.53625 8.20016 8.55989 8.20492 8.58354C8.24778 8.61901 8.25493 8.65448 8.34064 8.65448C8.40493 8.47003 8.57637 8.5055 8.74781 8.53388C8.79782 8.64739 8.68352 8.71833 8.64781 8.79637C8.51923 8.79637 8.39779 8.79637 8.31921 8.8744C8.27635 8.8744 8.2335 8.8744 8.19064 8.8744C8.11206 8.90987 8.1192 8.98791 8.08349 9.02338C8.09063 9.09432 8.05491 9.17236 8.02634 9.2433C7.94062 9.2433 7.89776 9.20783 7.84776 9.17236C7.86919 8.95244 7.76204 8.73252 7.50488 8.69705C7.26915 8.84603 7.5406 9.06595 7.68346 9.17236C7.69061 9.2433 7.70489 9.28587 7.75489 9.35681C7.79775 9.39228 7.71203 9.42775 7.75489 9.46322C7.54774 9.30715 7.34058 9.16526 7.15486 9.03757H7.162C7.162 8.98791 7.15486 8.95244 7.112 8.95244C7.15486 8.95244 7.14772 8.91697 7.14772 8.8815C7.09057 8.77508 7.01199 8.77508 6.91913 8.70414C6.75483 8.74671 6.92627 8.95953 6.83341 8.84603C5.96907 8.31396 5.15474 7.95925 4.57613 7.87412C4.43327 7.85284 4.29754 7.84574 4.18325 7.85993C3.98324 7.88831 3.91895 7.96634 3.88323 8.0231C3.84752 8.07985 3.8118 8.18626 3.88323 8.37781C4.2904 9.38518 6.84055 10.8679 9.32642 11.5418L9.39785 11.5631C12.9624 5.16413 20.7414 2.62441 22.6129 5.92321C23.5201 7.51941 22.7558 9.29296 21.12 10.7969C20.4057 11.4496 19.5199 12.0526 18.527 12.5634L18.4984 12.5208C18.5127 12.4641 18.577 12.4144 18.5413 12.3506C18.4198 12.2583 18.3127 12.3931 18.2198 12.4854C18.1912 12.386 18.177 12.2441 18.1412 12.1448C18.1412 12.1448 18.1174 12.1354 18.0698 12.1165C17.9841 12.1235 17.9269 12.2371 17.8198 12.2796C17.8841 12.3931 17.7769 12.5279 17.6841 12.6272C17.7126 12.7195 17.8269 12.7762 17.8626 12.8897C17.7555 12.9394 17.6484 12.989 17.5341 13.0387C17.5198 13.0032 17.4841 12.989 17.4555 12.9819C17.3555 13.0245 17.284 13.0813 17.234 13.1735C17.0769 13.2444 16.9197 13.3083 16.7626 13.3721C16.8126 13.3012 16.8697 13.2302 16.9412 13.1735C17.0269 13.1664 17.1055 13.1025 17.1769 13.0458C17.1674 13.0127 17.1578 12.9796 17.1483 12.9465C17.1626 12.9228 17.1745 12.8992 17.184 12.8755C17.134 12.8117 17.1698 12.7407 17.2126 12.6627C17.184 12.5634 17.134 12.4995 17.0983 12.3931C17.1126 12.3695 17.1245 12.3458 17.134 12.3222C17.2412 12.2796 17.3698 12.1945 17.4912 12.2016C17.5269 12.2158 17.5626 12.23 17.5769 12.2796C17.6912 12.1448 17.7484 12.0384 17.9198 12.0171C17.9198 11.932 17.8341 11.9391 17.7984 11.9249C17.6055 11.9817 17.4626 11.8398 17.3269 11.783C17.0626 11.8114 16.9983 12.0952 16.9197 12.3293C16.8626 12.3506 16.8483 12.386 16.8269 12.4286C16.9483 12.5208 17.0126 12.6343 16.884 12.8046C16.8935 12.8377 16.9031 12.8708 16.9126 12.9039C16.9126 12.989 16.8197 13.0032 16.784 13.0742C16.6269 13.0529 16.5769 12.9039 16.6554 12.7549C16.6411 12.7053 16.6054 12.6911 16.5697 12.6769C16.4054 12.7478 16.2697 12.6911 16.1268 12.6343C16.1625 12.5634 16.0197 12.5918 16.0625 12.5208C16.0268 12.5066 15.9911 12.4924 15.9554 12.4783C15.9411 12.4286 15.9268 12.3789 15.9054 12.3293C15.9411 12.2583 15.9482 12.1661 15.9482 12.081C15.9482 12.081 15.9244 12.0715 15.8768 12.0526C15.7911 12.0597 15.7339 12.1732 15.6411 12.1803C15.6268 12.1306 15.5911 12.1165 15.5554 12.1023C15.6339 11.9533 15.6054 11.7688 15.7125 11.634C15.784 11.6624 15.8697 11.6553 15.8697 11.7405L15.9268 11.7192C15.9554 11.8185 16.0983 11.7901 16.184 11.8682C16.1983 12.0029 16.2983 12.0455 16.3126 12.1874C16.3126 12.1874 16.3364 12.1969 16.384 12.2158C16.5269 12.1803 16.6054 12.0384 16.6769 11.8894C16.6483 11.6979 16.5983 11.5489 16.5769 11.3574C16.5769 11.3574 16.553 11.3479 16.5054 11.329C16.4483 11.3503 16.4197 11.3361 16.3768 11.4141C16.5126 11.556 16.3983 11.6908 16.2911 11.8256C16.1697 11.8256 16.1554 11.6837 16.1054 11.6199C16.1625 11.5064 16.2197 11.3999 16.1911 11.2935C16.2126 11.2581 16.2268 11.2226 16.2483 11.18C16.2483 11.0949 16.184 11.0665 16.1697 11.0169C16.0983 10.9885 16.0483 10.9246 15.9983 10.8608C16.034 10.7898 16.0911 10.7615 16.1411 10.7402C16.334 10.8608 16.5769 10.8679 16.7269 10.6621C16.7054 10.3855 16.3768 10.5203 16.2197 10.5912C16.1483 10.5628 16.1125 10.5557 16.0197 10.5628C15.9625 10.5841 15.9768 10.4919 15.9197 10.5203C16.1554 10.4138 16.384 10.3003 16.584 10.1939V10.2081C16.7054 10.1514 16.7412 10.2081 16.7554 10.1726C16.734 10.2081 16.7912 10.2294 16.8269 10.2436C16.9483 10.2436 16.934 10.2152 17.0412 10.1655C17.084 10.0024 17.2555 10.1088 17.0769 9.96691C17.9984 9.43484 18.4484 9.04466 18.8127 8.59773L18.8341 8.59063ZM9.17641 8.13661C9.17641 8.16971 9.17879 8.20282 9.18355 8.23592C9.22641 8.26903 9.26689 8.30214 9.30499 8.33524C9.34309 8.33524 9.38118 8.33524 9.41928 8.33524C9.52643 8.28558 9.51929 8.07985 9.39071 8.08695C9.33356 8.08695 9.32642 8.03729 9.26927 8.03729C9.23594 8.07039 9.2026 8.1035 9.16927 8.13661H9.17641ZM8.72638 7.13632C8.80496 7.24983 8.93354 7.29949 9.05497 7.18598C9.05497 7.12923 8.98354 7.12923 8.9764 7.07248C8.91211 7.07248 8.77639 7.02282 8.72638 7.13632ZM8.00491 8.61192C7.94776 8.46294 8.0192 8.34943 8.00491 8.20755C7.95491 8.13661 7.86919 8.13661 7.79775 8.20755C7.77394 8.23119 7.74775 8.25721 7.71918 8.28558C7.73347 8.43456 7.83347 8.54098 7.92633 8.65448C7.96919 8.65448 8.01205 8.65448 8.00491 8.61901V8.61192ZM7.81204 6.39853C7.9049 6.46947 8.0192 6.39853 8.09777 6.32049C8.05491 6.28502 7.96205 6.21408 7.91205 6.17861C7.88347 6.17861 7.8549 6.17861 7.82633 6.17861C7.74775 6.25664 7.67632 6.32758 7.8049 6.39853H7.81204ZM7.71204 7.27821C7.71204 7.32787 7.76918 7.32077 7.82633 7.32077C8.02634 7.17889 8.06206 6.98734 7.78347 6.89512C7.57631 6.94478 7.59774 7.13632 7.71918 7.27111L7.71204 7.27821ZM7.43345 7.59035C7.40487 7.59035 7.3763 7.59035 7.34773 7.59035C7.23343 7.66839 7.20486 7.81737 7.08343 7.88831C6.95485 7.88831 6.92627 7.96635 6.8477 8.03729C6.8477 8.07276 6.85484 8.10823 6.8977 8.10823C7.112 8.17917 7.36916 8.17208 7.57631 8.17208C7.81918 8.05857 7.71203 7.83865 7.60489 7.6542C7.56203 7.61873 7.51202 7.58326 7.4263 7.58326L7.43345 7.59035ZM11.9194 14.5143L11.898 14.4433C11.7051 14.4433 11.5194 14.4433 11.3337 14.4433C10.8265 16.1389 10.8122 17.5932 10.7979 18.0117C10.7694 18.785 10.8622 19.8917 11.0765 20.4309C11.1337 20.5656 11.1908 20.6792 11.2623 20.7714C11.3837 20.9274 11.4908 20.9487 11.5551 20.9487C11.6266 20.9487 11.7337 20.9345 11.8623 20.7643C12.5409 19.9059 12.5695 16.9902 11.9194 14.5214V14.5143ZM9.9836 7.87412C9.94074 7.83865 9.89788 7.83865 9.85502 7.83865C9.81931 7.87412 9.81931 7.90959 9.82645 7.95216C9.86931 7.95216 9.91217 7.95216 9.95503 7.95216C9.95503 7.91669 9.99074 7.91669 9.99074 7.88121L9.9836 7.87412ZM8.63352 9.10851C8.41922 9.05176 8.44065 9.23621 8.45494 9.35681C8.52637 9.35681 8.66209 9.35681 8.72638 9.29296C8.72638 9.22911 8.7121 9.17236 8.64066 9.1156L8.63352 9.10851ZM9.3407 9.32843C9.17641 9.32843 9.14784 9.47741 9.0264 9.51998C8.99783 9.66895 9.16927 9.70442 9.2907 9.62639C9.38356 9.56963 9.48357 9.43484 9.3407 9.32843ZM9.54072 9.8534C9.48357 9.88178 9.46214 9.93144 9.46929 9.9811C9.49786 10.0024 9.505 10.0591 9.59072 10.0308C9.61929 10.0237 9.61929 10.0308 9.64787 10.0308C9.69787 9.95272 9.68358 9.83212 9.54072 9.8534ZM10.0122 9.69024C10.0908 9.65476 10.1765 9.64767 10.255 9.57673C10.205 9.50579 10.1908 9.39228 10.105 9.35681C10.0765 9.35681 10.0479 9.35681 10.0193 9.35681C9.94788 9.47032 9.86931 9.54126 9.92645 9.65476C9.96931 9.65476 10.0122 9.65476 10.0122 9.69024ZM9.74073 9.14398C9.70501 9.17945 9.70501 9.22202 9.71216 9.25749C9.75502 9.25749 9.79788 9.25749 9.84074 9.25749C9.84074 9.23384 9.83836 9.21019 9.83359 9.18655C9.83359 9.15108 9.79073 9.15108 9.74787 9.15108L9.74073 9.14398ZM10.155 8.7609C10.1908 8.68995 10.055 8.61192 10.0479 8.54098C9.91931 8.54098 9.79073 8.5055 9.7693 8.65448C9.69073 8.73252 9.74787 8.83893 9.83359 8.8744C9.96217 8.90987 10.0836 8.8744 10.155 8.7609ZM11.0194 8.41328C10.9408 8.44875 10.9479 8.52679 10.9551 8.59773C10.9979 8.6332 11.0408 8.6332 11.0837 8.6332C11.248 8.6332 11.1908 8.48422 11.1051 8.41328H11.0194ZM10.5479 8.41328C10.5051 8.41328 10.4622 8.41328 10.4193 8.41328C10.3979 8.59773 10.5336 8.66867 10.6622 8.73961H10.7479C10.7765 8.59063 10.6408 8.51969 10.5479 8.40619V8.41328ZM8.72638 6.59716C8.77639 6.59716 8.78353 6.56169 8.81925 6.5475C8.73353 6.49075 8.65495 6.434 8.56923 6.37724C8.56923 6.4269 8.56923 6.434 8.58352 6.49075C8.63114 6.52859 8.67876 6.56642 8.72638 6.60426V6.59716ZM10.3622 7.84574C10.3336 7.95925 10.2979 8.03019 10.2622 8.10823C10.3122 8.17917 10.3551 8.21464 10.4479 8.25011C10.5908 8.25011 10.6908 8.19336 10.7622 8.10823C10.6694 8.0231 10.5694 7.93797 10.4765 7.85284C10.4408 7.85284 10.3979 7.85284 10.3622 7.84574ZM8.66209 10.0166C8.61923 10.0166 8.61923 9.9811 8.61209 9.94563C8.56923 9.94563 8.48351 9.94563 8.43351 9.87468C8.43351 9.83921 8.42636 9.80374 8.46208 9.76118C8.2835 9.69024 8.31921 9.57673 8.29778 9.43484C8.26921 9.4112 8.23826 9.38755 8.20492 9.3639C8.16206 9.3639 8.1192 9.3639 8.12635 9.39937C8.13349 9.47032 8.14063 9.51288 8.14778 9.58382C8.09777 9.6122 8.05491 9.64767 8.0192 9.67605C8.18349 9.80374 8.35493 9.93853 8.52637 10.0875C8.56923 10.0662 8.61209 10.0449 8.65495 10.0166H8.66209ZM9.3407 10.4493C9.3407 10.4138 9.2907 10.3784 9.2907 10.3358C9.2907 10.3122 9.28832 10.2885 9.28356 10.2649C9.14784 10.1939 8.93354 10.123 8.81925 10.2365C8.81925 10.2649 8.82639 10.3003 8.83353 10.3358C8.90496 10.3997 8.9764 10.4635 9.04783 10.5274C9.16212 10.5274 9.26213 10.499 9.3407 10.4493ZM16.5126 12.3293C16.4792 12.3151 16.4435 12.3009 16.4054 12.2867C16.353 12.3104 16.2983 12.334 16.2411 12.3577C16.2221 12.3955 16.203 12.4333 16.184 12.4712C16.184 12.606 16.384 12.7053 16.4483 12.5776C16.4769 12.5208 16.5269 12.5421 16.5554 12.4854C16.5411 12.4333 16.5245 12.3813 16.5054 12.3293H16.5126ZM17.5841 12.4641C17.4483 12.4783 17.334 12.5705 17.3841 12.7266C17.4341 12.7478 17.4698 12.6911 17.5198 12.7124C17.5483 12.6556 17.6626 12.5634 17.5841 12.4641ZM16.5983 11.1445C16.7554 11.1658 16.8197 11.2793 16.9626 11.3361C17.0483 11.329 17.0912 11.251 17.0555 11.1516C17.0459 11.1185 17.0364 11.0854 17.0269 11.0523C16.8912 10.9956 16.7483 11.031 16.6054 11.0594C16.584 11.0949 16.5697 11.1304 16.6054 11.1445H16.5983ZM18.6627 12.0171C18.5555 12.0597 18.5698 12.2016 18.5984 12.3009C18.6556 12.2796 18.7627 12.23 18.8127 12.2087C18.827 12.185 18.8389 12.1614 18.8484 12.1377C18.8199 12.0384 18.7841 11.932 18.6556 12.0171H18.6627ZM17.9269 11.5205C17.8841 11.5064 17.8555 11.5489 17.8341 11.5986C17.8698 11.8398 18.0198 11.9604 18.2341 11.7546C18.2841 11.5489 18.1127 11.478 17.9269 11.5205ZM17.7769 11.1304C17.7912 11.1067 17.8031 11.0831 17.8126 11.0594C17.7984 10.9246 17.6769 10.8253 17.6698 10.6905C17.7269 10.577 17.6698 10.5132 17.6484 10.4138C17.6126 10.3997 17.5769 10.3855 17.5626 10.4209C17.3983 10.577 17.284 10.7969 17.1912 10.9814C17.184 11.2439 17.4269 11.251 17.6412 11.251C17.6984 11.2297 17.7484 11.2084 17.7841 11.1304H17.7769ZM16.3197 13.2161C16.3768 13.1948 16.3911 13.1593 16.4126 13.1167C16.3983 13.0671 16.3626 13.0529 16.3268 13.0387C16.3054 13.0742 16.2911 13.1096 16.2697 13.1522C16.3054 13.1664 16.284 13.2019 16.3197 13.2161ZM15.6697 11.4851C15.6411 11.3928 15.7125 11.251 15.7482 11.18C15.8768 11.2297 16.0768 11.3077 15.9054 11.4922C15.8054 11.5347 15.7411 11.5064 15.6697 11.4851ZM15.3196 11.9746C15.3982 11.8256 15.2768 11.7334 15.2982 11.6128C15.1768 11.5205 15.0696 11.6553 15.0768 11.7901C15.0839 11.8965 15.1553 12.0455 15.3196 11.9746ZM14.7553 11.9036C14.7553 11.8469 14.7267 11.7972 14.6767 11.783C14.641 11.7972 14.591 11.783 14.5767 11.8611C14.5767 11.8894 14.5625 11.8894 14.5482 11.9107C14.591 11.9888 14.7125 12.0384 14.7553 11.9036ZM14.6839 12.3931C14.6839 12.4783 14.641 12.5563 14.6767 12.6556C14.7625 12.6485 14.8696 12.6911 14.941 12.6272C14.9553 12.6036 14.9672 12.5799 14.9768 12.5563C14.9125 12.4428 14.8768 12.3364 14.7553 12.3364C14.7339 12.3718 14.7196 12.4073 14.6839 12.3931ZM15.2982 12.4144C15.2839 12.3647 15.2482 12.3506 15.2125 12.3364C15.1911 12.3718 15.1768 12.4073 15.1553 12.4499C15.1553 12.4499 15.1792 12.4593 15.2268 12.4783C15.2268 12.4783 15.2839 12.457 15.2982 12.4215V12.4144ZM15.4482 12.9536C15.4982 13.0174 15.6268 12.9323 15.6982 12.9607C15.7554 12.8472 15.8482 12.7549 15.7268 12.6627C15.6982 12.5634 15.5697 12.5563 15.4982 12.613C15.4054 12.7124 15.3839 12.833 15.4482 12.9465V12.9536ZM15.3554 13.8687C15.3554 13.7836 15.2911 13.7552 15.2196 13.7268C15.1625 13.7481 15.1482 13.7836 15.1268 13.8262C15.0482 13.9751 15.2053 13.9893 15.3196 13.9468C15.3339 13.9231 15.3458 13.8995 15.3554 13.8758V13.8687ZM15.5768 13.4573C15.5982 13.4218 15.6125 13.3863 15.6339 13.3437C15.4768 13.2373 15.3554 13.3225 15.2268 13.4005C15.2125 13.4241 15.2006 13.4478 15.1911 13.4714C15.3125 13.5637 15.4411 13.4785 15.5768 13.4502V13.4573ZM18.2841 12.6343C18.3341 12.6556 18.3413 12.6556 18.3913 12.6769C18.3055 12.7195 18.2127 12.7691 18.1198 12.8117C18.1198 12.7762 18.0912 12.7549 18.1198 12.7053L18.2841 12.6343ZM16.1697 13.5637C16.084 13.4856 16.034 13.4218 15.984 13.3579C15.8982 13.365 15.8411 13.3934 15.7697 13.4502C15.7054 13.5708 15.7054 13.6914 15.7482 13.7907C15.8697 13.7481 15.9911 13.7056 16.1125 13.663C16.1268 13.6275 16.1483 13.5991 16.1768 13.5637H16.1697ZM15.0268 11.0665C15.0482 11.031 15.0839 11.0452 15.1125 11.0594C15.1339 11.0239 15.1696 10.9459 15.2554 10.9388C15.2911 10.953 15.3268 10.9672 15.3411 11.0169C15.4839 10.8962 15.5697 10.9743 15.7125 11.031C15.7506 11.0169 15.7863 11.0027 15.8197 10.9885C15.8411 10.953 15.8554 10.9175 15.8197 10.9033C15.7482 10.875 15.7125 10.8608 15.6482 10.8324C15.6482 10.7756 15.6339 10.726 15.6268 10.6763C15.4339 10.7615 15.2339 10.8466 15.0196 10.9246C15.0196 10.9743 15.0196 11.0169 15.0196 11.0665H15.0268ZM14.3196 11.4496C14.3196 11.4496 14.4053 11.4425 14.441 11.4496C14.441 11.4496 14.4648 11.4591 14.5124 11.478C14.641 11.3928 14.8053 11.2368 14.7553 11.0878C14.7267 11.0736 14.691 11.0665 14.6553 11.0523C14.5625 11.0878 14.4767 11.1162 14.3839 11.1516C14.3267 11.2439 14.3053 11.3503 14.3196 11.4496Z" fill="white"/>
<path d="M68.4223 11.2001H70.3326V12.8567H71.9449V6.29395H69.5914V6.62846H69.8588C70.1034 6.62846 70.3097 6.82757 70.3326 7.08243V8.01428H68.4223V6.72403H66.2064V7.05854H66.3363C66.5961 7.05854 66.81 7.28155 66.81 7.55234V7.53641V8.5718H64.3649V6.71606H62.1719V7.05057H62.2712C62.531 7.05057 62.745 7.27358 62.745 7.54437V11.1762C62.745 11.893 63.3028 12.4824 63.9905 12.4824H68.407V11.1921L68.4223 11.2001ZM68.4223 9.05763H70.3326V10.1488H68.4223V9.05763ZM66.81 11.439H64.3649V9.62311H66.81V11.439Z" fill="white"/>
<path d="M94.4834 16.371V7.11621H86.3914V8.16753H92.8711V16.3789H91.5874V11.6958H89.3791V12.0303H89.509C89.7535 12.0303 89.9598 12.2294 89.9828 12.4763V16.371H88.8672V11.6878H86.6742V12.0224H86.7811C87.0409 12.0224 87.2549 12.2454 87.2549 12.5162V16.363H85.3828V17.4143H95.8664V16.363H94.4757L94.4834 16.371Z" fill="white"/>
<path d="M34.8584 6.63642H35.164C35.4162 6.64438 35.6225 6.86739 35.6225 7.13022V9.87798H33.4219V10.8656H35.6225V18.7425H37.2348V6.29395H34.866V6.62846L34.8584 6.63642Z" fill="white"/>
<path d="M81.2148 6.29312V6.62763H81.5052C81.765 6.62763 81.979 6.85064 81.979 7.12143V18.7337H83.5912V6.28516H81.2225L81.2148 6.29312Z" fill="white"/>
<path d="M96.6719 12.0527V13.1041H99.4991V14.6412H97.9174V15.6925H104.267V18.735H105.879V14.6492H104.336V13.112H107.163V12.0607H96.6795L96.6719 12.0527ZM102.724 14.6412H101.111V13.1041H102.724V14.6412Z" fill="white"/>
<path d="M101.918 11.5433C103.652 11.5433 105.058 10.3008 105.058 8.77165C105.058 7.24247 103.645 6 101.918 6C100.191 6 98.7773 7.24247 98.7773 8.77165C98.7773 10.3008 100.191 11.5433 101.918 11.5433ZM101.918 7.01149C102.774 7.01149 103.469 7.79998 103.469 8.77165C103.469 9.74332 102.774 10.5318 101.918 10.5318C101.062 10.5318 100.367 9.74332 100.367 8.77165C100.367 7.79998 101.062 7.01149 101.918 7.01149Z" fill="white"/>
<path d="M52.0039 15.557H58.1627V18.6234H59.7749V14.5137H52.0039V15.557Z" fill="white"/>
<path d="M61.1828 12.5156H50.6992V13.5664H61.1828V12.5156Z" fill="white"/>
<path d="M44.1572 11.4806C45.8611 11.4806 47.2518 10.2621 47.2518 8.76473C47.2518 7.2674 45.8611 6.04883 44.1572 6.04883C42.4532 6.04883 41.0625 7.2674 41.0625 8.76473C41.0625 10.2621 42.4532 11.4806 44.1572 11.4806ZM44.1572 6.94085C44.9824 6.94085 45.6548 7.7612 45.6548 8.76473C45.6548 9.76826 44.9824 10.5886 44.1572 10.5886C43.3319 10.5886 42.6595 9.76826 42.6595 8.76473C42.6595 7.7612 43.3319 6.94085 44.1572 6.94085Z" fill="white"/>
<path d="M38.8984 13.1192H43.3379V13.9953H40.2204V15.0466H46.2568V15.8351H40.0599V16.1696H40.1057C40.3655 16.1696 40.5795 16.3926 40.5795 16.6634V17.42C40.5795 18.1368 41.1449 18.7262 41.8326 18.7262H47.9608V17.6828H42.1841V16.8864H47.8691V13.9953H44.9502V13.1192H49.3897V12.0439H38.9061V13.1192H38.8984Z" fill="white"/>
<path d="M66.48 16.4811H71.9434V13.4148H64.5239V14.4661H70.3388V15.4298H64.3634V15.7643H64.4092C64.6538 15.7643 64.8524 15.9555 64.883 16.2024V17.182C64.883 17.8988 65.4484 18.4882 66.1361 18.4882H72.0427V17.4448H66.4876V16.4732L66.48 16.4811Z" fill="white"/>
<path d="M51.9364 7.36167V10.2528C51.9364 10.9696 52.4865 11.559 53.1819 11.559H60.036V10.5873H53.5563V9.52801H59.8373V8.55634H53.5563V7.49706H60.036V6.52539H51.3633V6.8599H51.4626C51.7224 6.8599 51.9364 7.08291 51.9364 7.3537V7.36167Z" fill="white"/>
<path d="M31.6687 6.72559V9.18662C31.6687 11.9264 33.09 13.4476 34.6564 14.037L34.068 14.8016C32.7843 14.4352 31.4166 13.5034 30.8282 12.3406C30.2398 13.5034 28.8721 14.4352 27.5884 14.8016L27 14.037C28.5664 13.4476 29.9877 11.9264 29.9877 9.18662V7.5539C29.9877 7.2831 29.7737 7.0601 29.5139 7.0601H29.3687V6.72559H31.6764H31.6687Z" fill="white"/>
<path d="M78.0125 6.72559V9.18662C78.0125 11.9264 79.4337 13.4476 81.0002 14.037L80.4118 14.8016C79.1281 14.4352 77.7603 13.5034 77.172 12.3406C76.5836 13.5034 75.2158 14.4352 73.9321 14.8016L73.3438 14.037C74.9102 13.4476 76.3314 11.9264 76.3314 9.18662V7.5539C76.3314 7.2831 76.1175 7.0601 75.8577 7.0601H75.7125V6.72559H78.0201H78.0125Z" fill="white"/>
<path d="M115.631 6.29492V6.62943H115.921C116.181 6.62943 116.395 6.85244 116.395 7.12323V9.32144H114.316V10.3728H116.395V13.0887H117.999V6.30289H115.631V6.29492Z" fill="white"/>
<path d="M114.536 13.2979C112.733 13.2979 111.273 14.5801 111.273 16.1491C111.273 17.7182 112.741 19.0004 114.536 19.0004C116.332 19.0004 117.799 17.7182 117.799 16.1491C117.799 14.5801 116.332 13.2979 114.536 13.2979ZM114.536 18.0447C113.627 18.0447 112.893 17.1925 112.893 16.1491C112.893 15.1058 113.635 14.2536 114.536 14.2536C115.438 14.2536 116.179 15.1058 116.179 16.1491C116.179 17.1925 115.438 18.0447 114.536 18.0447Z" fill="white"/>
<path d="M115.178 11.7975C115.018 11.7736 112.481 11.1125 112.404 8.59571H114.796V7.5444H112.374V6.19043H110.181V6.52494H110.288C110.532 6.52494 110.739 6.72405 110.761 6.97095V7.53643H108.339V8.58775H110.731C110.655 11.0727 108.171 11.7497 107.965 11.7895L108.607 12.6178C109.569 12.4266 110.655 11.9488 111.571 10.7621C112.496 11.9567 113.581 12.4346 114.551 12.6258L115.186 11.7975H115.178Z" fill="white"/>
</g>
</svg>
