<svg width="146" height="64" viewBox="0 0 146 64" fill="none" xmlns="http://www.w3.org/2000/svg">
<path d="M26.6016 18.707C26.25 15.3672 23.5547 13.375 19.2773 13.375C14.8242 13.375 12.3633 15.4258 12.3047 18.2383C12.2461 21.2852 15.4688 22.6914 19.1016 23.5117L22.9102 24.4492C30.1758 26.0898 35.625 29.7812 35.625 36.8711C35.625 44.6641 29.5312 49.5859 19.2188 49.5859C8.96484 49.5859 2.40234 44.8398 2.16797 35.7578H10.7227C11.0156 40.0352 14.4141 42.2031 19.1016 42.2031C23.7305 42.2031 26.7188 40.0352 26.7188 36.8711C26.7188 34 24.082 32.6523 19.4531 31.4805L14.8242 30.3672C7.67578 28.6094 3.28125 25.0352 3.28125 18.8242C3.28125 11.0898 10.0781 5.99219 19.3359 5.99219C28.7109 5.99219 34.9219 11.207 35.0391 18.707H26.6016ZM61.9945 18.707C61.643 15.3672 58.9477 13.375 54.6703 13.375C50.2172 13.375 47.7562 15.4258 47.6977 18.2383C47.6391 21.2852 50.8617 22.6914 54.4945 23.5117L58.3031 24.4492C65.5687 26.0898 71.018 29.7812 71.018 36.8711C71.018 44.6641 64.9242 49.5859 54.6117 49.5859C44.3578 49.5859 37.7953 44.8398 37.5609 35.7578H46.1156C46.4086 40.0352 49.807 42.2031 54.4945 42.2031C59.1234 42.2031 62.1117 40.0352 62.1117 36.8711C62.1117 34 59.475 32.6523 54.8461 31.4805L50.2172 30.3672C43.0687 28.6094 38.6742 25.0352 38.6742 18.8242C38.6742 11.0898 45.4711 5.99219 54.7289 5.99219C64.1039 5.99219 70.3148 11.207 70.432 18.707H61.9945ZM102.72 21.3438C102.016 16.6562 98.3836 13.7852 93.4617 13.7852C86.8406 13.7852 82.5047 18.8828 82.5047 27.7891C82.5047 36.9297 86.8992 41.793 93.4031 41.793C98.2664 41.793 101.841 39.0977 102.72 34.5273L111.626 34.5859C110.63 42.4375 104.067 49.5859 93.2859 49.5859C81.9187 49.5859 73.5398 41.6172 73.5398 27.7891C73.5398 13.9609 82.0945 5.99219 93.2859 5.99219C103.071 5.99219 110.454 11.6172 111.626 21.3438H102.72ZM115.378 49V6.57812H143.327V13.8438H124.167V24.1562H141.511V31.4219H124.167V49H115.378Z" fill="#222222"/>
<rect y="60" width="73" height="4" fill="#222222"/>
</svg>
