<svg width="48" height="48" viewBox="0 0 48 48" fill="none" xmlns="http://www.w3.org/2000/svg">
<path d="M47.8597 31.932C47.8597 40.7538 40.7231 47.9065 31.9211 47.9065V15.9575C40.7231 15.9575 47.8597 23.1102 47.8597 31.932Z" fill="#1D2087"/>
<path d="M0.046875 16.0409C0.046875 7.21397 7.17836 0.0664062 15.9854 0.0664062V32.0154C7.17836 32.0154 0.046875 24.8627 0.046875 16.0409Z" fill="#1D2087"/>
<path d="M46.5108 15.9796H15.9722C15.9722 7.15268 23.1088 0 31.9158 0H46.5108C47.3078 0 47.9514 0.645124 47.9514 1.44385V14.5306C47.9514 15.3294 47.3078 15.9745 46.5108 15.9745V15.9796Z" fill="#1D2087"/>
<path d="M1.4406 32.0203H31.9793C31.9793 40.8472 24.8427 47.9999 16.0356 47.9999H1.4406C0.643672 47.9999 0 47.3548 0 46.556V33.4692C0 32.6705 0.643672 32.0254 1.4406 32.0254V32.0203Z" fill="#1D2087"/>
</svg>
