<svg width="110" height="24" viewBox="0 0 110 24" fill="none" xmlns="http://www.w3.org/2000/svg">
<path d="M10.6932 4.82138C11.9984 4.82138 13.0505 3.73861 13.0505 2.41069C13.0505 1.08277 11.9917 0 10.6932 0C9.39471 0 8.33594 1.08277 8.33594 2.41069C8.33594 3.73861 9.39471 4.82138 10.6932 4.82138Z" fill="#6B7684"/>
<path d="M17.5571 8.24847C17.6437 8.13951 17.7103 8.03056 17.7503 7.93522C17.8235 7.75816 17.7902 7.66282 17.7569 7.60835C17.7236 7.54706 17.657 7.47215 17.4639 7.4381C16.4518 7.29509 14.0545 8.67068 12.3365 10.3936L12.2899 10.4412C15.8525 16.4339 14.2943 24.0405 10.7317 23.9997C9.00704 23.9792 7.90831 22.5083 7.44884 20.4381C7.24907 19.5324 7.17583 18.1296 7.21578 17.4622C7.24242 17.0604 7.31566 15.4261 7.85504 13.5397C2.55451 12.3821 -1.18117 8.337 0.343732 5.72882C1.22937 4.21704 3.02729 3.9855 5.01832 4.61201C5.88399 4.8844 6.78961 5.32023 7.66859 5.89226L7.77513 5.96717C7.7152 5.98079 7.66859 6.01484 7.63529 6.07613C7.60866 6.21913 7.76847 6.25318 7.88834 6.28723C7.81509 6.36214 7.70854 6.43024 7.63529 6.50515C7.63529 6.52785 7.63751 6.55055 7.64195 6.57325C7.68857 6.64134 7.80843 6.64134 7.88834 6.70944C7.95493 6.60049 8.11474 6.63454 8.2346 6.66858C8.30119 6.60049 8.29453 6.47791 8.37444 6.403C8.46101 6.4711 8.55423 6.5392 8.6408 6.6073C8.62082 6.63454 8.62082 6.66858 8.62748 6.69582C8.70739 6.75711 8.78064 6.79116 8.88718 6.79797C9.0137 6.90012 9.13356 7.00227 9.26008 7.10442C9.17351 7.0908 9.09361 7.07718 9.0137 7.04313C8.96709 6.97503 8.88718 6.94098 8.80727 6.90693C8.78508 6.92963 8.76066 6.9546 8.73402 6.98184C8.70739 7.00908 8.68075 7.00908 8.65412 6.98184C8.62082 7.04994 8.54757 7.05675 8.46766 7.05675C8.39442 7.13165 8.36778 7.19975 8.29453 7.27466C8.2679 7.27466 8.24126 7.27466 8.21462 7.27466C8.12806 7.20656 8.0082 7.13846 7.95492 7.02951C7.95492 6.99546 7.94827 6.96141 7.98156 6.92055C7.82175 6.8865 7.70188 6.89331 7.60866 6.7503C7.53541 6.78435 7.58202 6.85926 7.58202 6.89331C7.7152 7.03632 7.65527 7.21337 7.66859 7.34957C7.80843 7.56068 8.07479 7.48577 8.30119 7.44491C8.34114 7.47896 8.3811 7.47896 8.42105 7.47896C8.44769 7.33595 8.51428 7.22699 8.71405 7.26104C8.73624 7.23834 8.76066 7.21337 8.78729 7.18613C8.86054 7.15208 8.90716 7.22018 8.98706 7.22018C9.04034 7.36319 8.93379 7.47215 8.78064 7.47215C8.74734 7.5062 8.74734 7.54025 8.754 7.58111C8.88052 7.68325 8.89384 7.82626 8.91382 7.96927C8.83391 7.96927 8.92713 8.07822 8.84723 8.07822C8.84723 8.11227 8.85388 8.14632 8.86054 8.18718C8.82725 8.22123 8.78729 8.26209 8.754 8.29614C8.67409 8.29614 8.60084 8.337 8.5276 8.37105C8.5276 8.39375 8.52981 8.41645 8.53425 8.43915C8.58087 8.50725 8.70073 8.50725 8.74068 8.57534C8.70739 8.60939 8.70739 8.64344 8.71405 8.6843C8.56089 8.6843 8.41439 8.79326 8.25458 8.76602C8.24792 8.69792 8.20131 8.62301 8.27456 8.58896L8.2346 8.55491C8.30785 8.48001 8.21462 8.37786 8.24126 8.2689C8.3478 8.19399 8.34114 8.09184 8.44769 8.01694C8.44769 7.99424 8.44547 7.97154 8.44103 7.94884C8.35446 7.84669 8.19465 7.84669 8.04149 7.84669C7.89499 7.95565 7.78845 8.06461 7.64195 8.17356C7.64195 8.19626 7.64417 8.21896 7.64861 8.24166C7.68857 8.27571 7.69523 8.30976 7.77513 8.30976C7.83506 8.1327 7.99488 8.16675 8.15469 8.19399C8.20131 8.30295 8.09476 8.37105 8.06147 8.44596C7.94161 8.44596 7.8284 8.44596 7.75516 8.52087C7.7152 8.52087 7.67525 8.52087 7.63529 8.52087C7.56205 8.55492 7.5687 8.62982 7.53541 8.66387C7.54207 8.73197 7.50877 8.80688 7.48214 8.87498C7.40223 8.87498 7.36228 8.84093 7.31566 8.80688C7.33564 8.59577 7.23576 8.38467 6.99603 8.35062C6.77629 8.49363 7.02933 8.70473 7.16251 8.80688C7.16917 8.87498 7.18249 8.91584 7.2291 8.98394C7.26905 9.01798 7.18914 9.05203 7.2291 9.08608C7.03599 8.93627 6.84288 8.80007 6.66975 8.67749H6.6764C6.6764 8.62982 6.66975 8.59577 6.62979 8.59577C6.66975 8.59577 6.66309 8.56172 6.66309 8.52768C6.60981 8.42553 6.53657 8.42553 6.45 8.35743C6.29684 8.39829 6.45666 8.60258 6.37009 8.49363C5.56436 7.98289 4.80524 7.64239 4.26586 7.56068C4.13268 7.54025 4.00616 7.53344 3.89962 7.54706C3.71317 7.5743 3.65324 7.6492 3.61994 7.70368C3.58665 7.75816 3.55335 7.86031 3.61994 8.04418C3.9995 9.01118 6.37675 10.4344 8.69407 11.0814L8.76066 11.1018C12.0835 4.95931 19.3351 2.52138 21.0797 5.68796C21.9254 7.22018 21.2129 8.92265 19.688 10.3663C19.0221 10.9928 18.1964 11.5717 17.2708 12.062L17.2442 12.0211C17.2575 11.9667 17.3174 11.919 17.2841 11.8577C17.1709 11.7692 17.071 11.8986 16.9845 11.9871C16.9578 11.8917 16.9445 11.7555 16.9112 11.6602C16.9112 11.6602 16.889 11.6511 16.8446 11.633C16.7647 11.6398 16.7115 11.7487 16.6116 11.7896C16.6715 11.8986 16.5716 12.0279 16.4851 12.1233C16.5117 12.2118 16.6182 12.2663 16.6515 12.3752C16.5516 12.4229 16.4518 12.4706 16.3452 12.5183C16.3319 12.4842 16.2986 12.4706 16.272 12.4638C16.1787 12.5046 16.1122 12.5591 16.0655 12.6476C15.919 12.7157 15.7725 12.777 15.626 12.8383C15.6727 12.7702 15.7259 12.7021 15.7925 12.6476C15.8724 12.6408 15.9457 12.5795 16.0123 12.5251C16.0034 12.4933 15.9945 12.4615 15.9856 12.4297C15.999 12.407 16.01 12.3843 16.0189 12.3616C15.9723 12.3003 16.0056 12.2322 16.0456 12.1573C16.0189 12.062 15.9723 12.0007 15.939 11.8986C15.9523 11.8759 15.9634 11.8532 15.9723 11.8305C16.0722 11.7896 16.1921 11.7079 16.3053 11.7147C16.3386 11.7283 16.3719 11.7419 16.3852 11.7896C16.4917 11.6602 16.545 11.5581 16.7048 11.5376C16.7048 11.4559 16.6249 11.4627 16.5916 11.4491C16.4118 11.5036 16.2786 11.3674 16.1521 11.3129C15.9057 11.3401 15.8458 11.6125 15.7725 11.8373C15.7193 11.8577 15.706 11.8917 15.686 11.9326C15.7992 12.0211 15.8591 12.1301 15.7393 12.2935C15.7481 12.3253 15.757 12.3571 15.7659 12.3889C15.7659 12.4706 15.6793 12.4842 15.646 12.5523C15.4995 12.5319 15.4529 12.3889 15.5262 12.2459C15.5128 12.1982 15.4796 12.1846 15.4463 12.1709C15.2931 12.239 15.1666 12.1846 15.0334 12.1301C15.0667 12.062 14.9335 12.0892 14.9735 12.0211C14.9402 12.0075 14.9069 11.9939 14.8736 11.9803C14.8603 11.9326 14.8469 11.8849 14.827 11.8373C14.8603 11.7692 14.8669 11.6806 14.8669 11.5989C14.8669 11.5989 14.8447 11.5898 14.8003 11.5717C14.7204 11.5785 14.6672 11.6874 14.5806 11.6943C14.5673 11.6466 14.534 11.633 14.5007 11.6193C14.5739 11.4763 14.5473 11.2993 14.6472 11.1699C14.7138 11.1971 14.7937 11.1903 14.7937 11.272L14.8469 11.2516C14.8736 11.347 15.0068 11.3197 15.0867 11.3946C15.1 11.524 15.1932 11.5649 15.2065 11.7011C15.2065 11.7011 15.2287 11.7101 15.2731 11.7283C15.4063 11.6943 15.4796 11.5581 15.5461 11.4151C15.5195 11.2312 15.4729 11.0882 15.4529 10.9043C15.4529 10.9043 15.4307 10.8952 15.3863 10.8771C15.3331 10.8975 15.3064 10.8839 15.2665 10.9588C15.393 11.095 15.2864 11.2244 15.1866 11.3538C15.0734 11.3538 15.06 11.2176 15.0134 11.1563C15.0667 11.0473 15.12 10.9452 15.0933 10.843C15.1133 10.809 15.1266 10.7749 15.1466 10.7341C15.1466 10.6524 15.0867 10.6251 15.0734 10.5774C15.0068 10.5502 14.9602 10.4889 14.9135 10.4276C14.9468 10.3595 15.0001 10.3323 15.0467 10.3119C15.2265 10.4276 15.4529 10.4344 15.5928 10.2369C15.5728 9.97136 15.2665 10.1008 15.12 10.1689C15.0534 10.1416 15.0201 10.1348 14.9335 10.1416C14.8802 10.162 14.8936 10.0735 14.8403 10.1008C15.06 9.9986 15.2731 9.88965 15.4596 9.7875V9.80112C15.5728 9.74664 15.6061 9.80112 15.6194 9.76707C15.5994 9.80112 15.6527 9.82155 15.686 9.83517C15.7992 9.83517 15.7859 9.80793 15.8857 9.76026C15.9257 9.60363 16.0855 9.70578 15.919 9.56958C16.778 9.05884 17.1976 8.6843 17.5372 8.25528L17.5571 8.24847ZM8.55423 7.81264C8.55423 7.84442 8.55645 7.8762 8.56089 7.90798C8.60084 7.93976 8.63858 7.97154 8.67409 8.00332C8.70961 8.00332 8.74512 8.00332 8.78064 8.00332C8.88052 7.95565 8.87386 7.75816 8.754 7.76497C8.70073 7.76497 8.69407 7.7173 8.6408 7.7173C8.60972 7.74908 8.57865 7.78086 8.54757 7.81264H8.55423ZM8.13472 6.85245C8.20797 6.96141 8.32783 7.00908 8.44103 6.90012C8.44103 6.84564 8.37444 6.84564 8.36778 6.79116C8.30785 6.79116 8.18133 6.74349 8.13472 6.85245ZM7.46216 8.2689C7.40889 8.12589 7.47548 8.01694 7.46216 7.88074C7.41555 7.81264 7.33564 7.81264 7.26905 7.88074C7.24686 7.90344 7.22244 7.92841 7.1958 7.95565C7.20912 8.09865 7.30235 8.2008 7.38891 8.30976C7.42887 8.30976 7.46882 8.30976 7.46216 8.27571V8.2689ZM7.28237 6.14423C7.36894 6.21232 7.47548 6.14423 7.54873 6.06932C7.50877 6.03527 7.42221 5.96717 7.3756 5.93312C7.34896 5.93312 7.32232 5.93312 7.29569 5.93312C7.22244 6.00803 7.15585 6.07613 7.27571 6.14423H7.28237ZM7.18914 6.98865C7.18914 7.03632 7.24242 7.02951 7.29569 7.02951C7.48214 6.89331 7.51543 6.70944 7.25573 6.62092C7.06262 6.66858 7.0826 6.85245 7.1958 6.98184L7.18914 6.98865ZM6.92944 7.28828C6.90281 7.28828 6.87617 7.28828 6.84954 7.28828C6.74299 7.36319 6.71636 7.5062 6.60316 7.5743C6.48329 7.5743 6.45666 7.6492 6.38341 7.7173C6.38341 7.75135 6.39007 7.7854 6.43002 7.7854C6.62979 7.8535 6.86951 7.84669 7.06262 7.84669C7.28903 7.73773 7.18914 7.52663 7.08926 7.34957C7.04931 7.31552 7.00269 7.28147 6.92279 7.28147L6.92944 7.28828ZM11.1113 13.9347L11.0913 13.8666C10.9115 13.8666 10.7384 13.8666 10.5652 13.8666C10.0925 15.4942 10.0791 16.8902 10.0658 17.292C10.0392 18.0342 10.1257 19.0966 10.3255 19.6141C10.3788 19.7435 10.4321 19.8525 10.4986 19.941C10.6119 20.0908 10.7117 20.1112 10.7717 20.1112C10.8383 20.1112 10.9381 20.0976 11.058 19.9342C11.6906 19.1102 11.7172 16.3113 11.1113 13.9415V13.9347ZM9.30669 7.56068C9.26674 7.52663 9.22679 7.52663 9.18683 7.52663C9.15354 7.56068 9.15354 7.59473 9.1602 7.63558C9.20015 7.63558 9.2401 7.63558 9.28006 7.63558C9.28006 7.60154 9.31335 7.60153 9.31335 7.56749L9.30669 7.56068ZM8.04815 8.74559C7.84838 8.69111 7.86836 8.86817 7.88168 8.98394C7.94827 8.98394 8.07479 8.98394 8.13472 8.92265C8.13472 8.86136 8.1214 8.80688 8.05481 8.7524L8.04815 8.74559ZM8.70739 8.9567C8.55423 8.9567 8.5276 9.0997 8.41439 9.14056C8.38776 9.28357 8.54757 9.31762 8.66078 9.24271C8.74734 9.18823 8.84057 9.05884 8.70739 8.9567ZM8.89384 9.46063C8.84057 9.48786 8.82059 9.53553 8.82725 9.5832C8.85388 9.60363 8.86054 9.65811 8.94045 9.63087C8.96709 9.62406 8.96709 9.63087 8.99372 9.63087C9.04034 9.55596 9.02702 9.4402 8.89384 9.46063ZM9.33333 9.304C9.40658 9.26995 9.48649 9.26314 9.55973 9.19504C9.51312 9.12694 9.4998 9.01798 9.4199 8.98394C9.39326 8.98394 9.36662 8.98394 9.33999 8.98394C9.2734 9.09289 9.20015 9.16099 9.25342 9.26995C9.29338 9.26995 9.33333 9.26995 9.33333 9.304ZM9.08029 8.77964C9.04699 8.81369 9.04699 8.85455 9.05365 8.8886C9.09361 8.8886 9.13356 8.8886 9.17351 8.8886C9.17351 8.8659 9.1713 8.8432 9.16686 8.8205C9.16686 8.78645 9.1269 8.78645 9.08695 8.78645L9.08029 8.77964ZM9.46651 8.41191C9.4998 8.34381 9.37328 8.2689 9.36662 8.2008C9.24676 8.2008 9.1269 8.16675 9.10693 8.30976C9.03368 8.38467 9.08695 8.48682 9.16686 8.52087C9.28672 8.55492 9.39992 8.52087 9.46651 8.41191ZM10.2722 8.07822C10.199 8.11227 10.2057 8.18718 10.2123 8.25528C10.2523 8.28933 10.2922 8.28933 10.3322 8.28933C10.4853 8.28933 10.4321 8.14632 10.3522 8.07822H10.2722ZM9.83275 8.07822C9.7928 8.07822 9.75284 8.07822 9.71289 8.07822C9.69291 8.25528 9.81943 8.32338 9.9393 8.39148H10.0192C10.0458 8.24847 9.91932 8.18037 9.83275 8.07141V8.07822ZM8.13472 6.3349C8.18133 6.3349 8.18799 6.30085 8.22128 6.28723C8.14138 6.23275 8.06813 6.17827 7.98822 6.1238C7.98822 6.17146 7.98822 6.17827 8.00154 6.23275C8.04593 6.26907 8.09032 6.30539 8.13472 6.34171V6.3349ZM9.65962 7.53344C9.63298 7.64239 9.59969 7.71049 9.56639 7.7854C9.61301 7.8535 9.65296 7.88755 9.73953 7.9216C9.87271 7.9216 9.96593 7.86712 10.0325 7.7854C9.94595 7.70368 9.85273 7.62196 9.76616 7.54025C9.73287 7.54025 9.69291 7.54025 9.65962 7.53344ZM8.07479 9.61725C8.03483 9.61725 8.03483 9.5832 8.02817 9.54915C7.98822 9.54915 7.90831 9.54915 7.8617 9.48106C7.8617 9.44701 7.85504 9.41296 7.88834 9.3721C7.72186 9.304 7.75516 9.19504 7.73518 9.05884C7.70854 9.03615 7.67969 9.01345 7.64861 8.99075C7.60866 8.99075 7.56871 8.99075 7.57536 9.0248C7.58202 9.09289 7.58868 9.13375 7.59534 9.20185C7.54873 9.22909 7.50877 9.26314 7.47548 9.29038C7.62864 9.41296 7.78845 9.54234 7.94827 9.68535C7.98822 9.66492 8.02817 9.64449 8.06813 9.61725H8.07479ZM8.70739 10.0327C8.70739 9.9986 8.66078 9.96455 8.66078 9.9237C8.66078 9.901 8.65856 9.8783 8.65412 9.8556C8.5276 9.7875 8.32783 9.7194 8.22128 9.82836C8.22128 9.8556 8.22794 9.88965 8.2346 9.9237C8.30119 9.98498 8.36778 10.0463 8.43437 10.1076C8.54091 10.1076 8.63414 10.0803 8.70739 10.0327ZM15.393 11.8373C15.3619 11.8236 15.3286 11.81 15.2931 11.7964C15.2443 11.8191 15.1932 11.8418 15.1399 11.8645C15.1222 11.9008 15.1044 11.9371 15.0867 11.9735C15.0867 12.1028 15.2731 12.1982 15.3331 12.0756C15.3597 12.0211 15.4063 12.0416 15.4329 11.9871C15.4196 11.9371 15.4041 11.8872 15.3863 11.8373H15.393ZM16.3918 11.9667C16.2653 11.9803 16.1588 12.0688 16.2054 12.2186C16.252 12.239 16.2853 12.1846 16.3319 12.205C16.3585 12.1505 16.4651 12.062 16.3918 11.9667ZM15.4729 10.7C15.6194 10.7204 15.6793 10.8294 15.8125 10.8839C15.8924 10.8771 15.9324 10.8022 15.8991 10.7068C15.8902 10.675 15.8813 10.6433 15.8724 10.6115C15.7459 10.557 15.6127 10.5911 15.4796 10.6183C15.4596 10.6524 15.4463 10.6864 15.4796 10.7H15.4729ZM17.3973 11.5376C17.2974 11.5785 17.3108 11.7147 17.3374 11.81C17.3907 11.7896 17.4906 11.7419 17.5372 11.7215C17.5505 11.6988 17.5616 11.6761 17.5705 11.6534C17.5438 11.5581 17.5105 11.4559 17.3907 11.5376H17.3973ZM16.7115 11.0609C16.6715 11.0473 16.6449 11.0882 16.6249 11.1359C16.6582 11.3674 16.798 11.4832 16.9978 11.2857C17.0444 11.0882 16.8846 11.0201 16.7115 11.0609ZM16.5716 10.6864C16.5849 10.6637 16.596 10.641 16.6049 10.6183C16.5916 10.4889 16.4784 10.3936 16.4717 10.2642C16.525 10.1552 16.4717 10.0939 16.4518 9.9986C16.4185 9.98498 16.3852 9.97136 16.3719 10.0054C16.2187 10.1552 16.1122 10.3663 16.0256 10.5434C16.0189 10.7954 16.2453 10.8022 16.4451 10.8022C16.4984 10.7817 16.545 10.7613 16.5783 10.6864H16.5716ZM15.2132 12.6885C15.2665 12.6681 15.2798 12.634 15.2998 12.5932C15.2864 12.5455 15.2531 12.5319 15.2199 12.5183C15.1999 12.5523 15.1866 12.5863 15.1666 12.6272C15.1999 12.6408 15.1799 12.6749 15.2132 12.6885ZM14.6072 11.0269C14.5806 10.9384 14.6472 10.8022 14.6805 10.7341C14.8003 10.7817 14.9868 10.8566 14.827 11.0337C14.7337 11.0746 14.6738 11.0473 14.6072 11.0269ZM14.2809 11.4968C14.3542 11.3538 14.241 11.2652 14.261 11.1495C14.1478 11.0609 14.0479 11.1903 14.0545 11.3197C14.0612 11.4219 14.1278 11.5649 14.2809 11.4968ZM13.7549 11.4287C13.7549 11.3742 13.7282 11.3265 13.6816 11.3129C13.6483 11.3265 13.6017 11.3129 13.5884 11.3878C13.5884 11.4151 13.5751 11.4151 13.5618 11.4355C13.6017 11.5104 13.7149 11.5581 13.7549 11.4287ZM13.6883 11.8986C13.6883 11.9803 13.6483 12.0552 13.6816 12.1505C13.7615 12.1437 13.8614 12.1846 13.928 12.1233C13.9413 12.1006 13.9524 12.0779 13.9613 12.0552C13.9014 11.9462 13.8681 11.8441 13.7549 11.8441C13.7349 11.8781 13.7216 11.9122 13.6883 11.8986ZM14.261 11.919C14.2476 11.8713 14.2143 11.8577 14.1811 11.8441C14.1611 11.8781 14.1478 11.9122 14.1278 11.953C14.1278 11.953 14.15 11.9621 14.1944 11.9803C14.1944 11.9803 14.2476 11.9598 14.261 11.9258V11.919ZM14.4008 12.4365C14.4474 12.4978 14.5673 12.4161 14.6339 12.4433C14.6871 12.3344 14.7737 12.2459 14.6605 12.1573C14.6339 12.062 14.514 12.0552 14.4474 12.1097C14.3608 12.205 14.3409 12.3208 14.4008 12.4297V12.4365ZM14.3142 13.315C14.3142 13.2333 14.2543 13.206 14.1877 13.1788C14.1344 13.1992 14.1211 13.2333 14.1011 13.2741C14.0279 13.4172 14.1744 13.4308 14.2809 13.3899C14.2943 13.3672 14.3054 13.3445 14.3142 13.3218V13.315ZM14.5207 12.92C14.5406 12.886 14.554 12.8519 14.5739 12.8111C14.4274 12.7089 14.3142 12.7906 14.1944 12.8656C14.1811 12.8883 14.17 12.911 14.1611 12.9337C14.2743 13.0222 14.3941 12.9405 14.5207 12.9132V12.92ZM17.0444 12.1301C17.091 12.1505 17.0977 12.1505 17.1443 12.1709C17.0644 12.2118 16.9778 12.2595 16.8913 12.3003C16.8913 12.2663 16.8646 12.2459 16.8913 12.1982L17.0444 12.1301ZM15.0734 13.0222C14.9934 12.9473 14.9468 12.886 14.9002 12.8247C14.8203 12.8315 14.767 12.8587 14.7005 12.9132C14.6405 13.029 14.6405 13.1448 14.6805 13.2401C14.7937 13.1992 14.9069 13.1584 15.0201 13.1175C15.0334 13.0835 15.0534 13.0562 15.08 13.0222H15.0734ZM14.0079 10.6251C14.0279 10.5911 14.0612 10.6047 14.0878 10.6183C14.1078 10.5843 14.1411 10.5093 14.221 10.5025C14.2543 10.5162 14.2876 10.5298 14.3009 10.5774C14.4341 10.4617 14.514 10.5366 14.6472 10.5911C14.6827 10.5774 14.716 10.5638 14.7471 10.5502C14.767 10.5162 14.7804 10.4821 14.7471 10.4685C14.6805 10.4412 14.6472 10.4276 14.5872 10.4004C14.5872 10.3459 14.5739 10.2982 14.5673 10.2506C14.3875 10.3323 14.201 10.414 14.0013 10.4889C14.0013 10.5366 14.0013 10.5774 14.0013 10.6251H14.0079ZM13.3487 10.9928C13.3487 10.9928 13.4286 10.986 13.4619 10.9928C13.4619 10.9928 13.4841 11.0019 13.5285 11.0201C13.6483 10.9384 13.8015 10.7885 13.7549 10.6455C13.7282 10.6319 13.6949 10.6251 13.6617 10.6115C13.5751 10.6455 13.4952 10.6728 13.4086 10.7068C13.3553 10.7954 13.3354 10.8975 13.3487 10.9928Z" fill="#6B7684"/>
<path d="M63.7876 10.7544H65.5683V12.3446H67.0713V6.04492H64.8774V6.36602H65.1267C65.3546 6.36602 65.547 6.55716 65.5683 6.80181V7.69631H63.7876V6.45777H61.7219V6.77887H61.843C62.0852 6.77887 62.2846 6.99294 62.2846 7.25288V7.23759V8.23148H60.0053V6.45012H57.9609V6.77122H58.0535C58.2957 6.77122 58.4952 6.98529 58.4952 7.24523V10.7315C58.4952 11.4196 59.0151 11.9853 59.6562 11.9853H63.7733V10.7468L63.7876 10.7544ZM63.7876 8.69784H65.5683V9.74524H63.7876V8.69784ZM62.2846 10.9838H60.0053V9.24065H62.2846V10.9838Z" fill="#6B7684"/>
<path d="M88.0773 15.7198V6.83594H80.534V7.84512H86.5743V15.7274H85.3777V11.232H83.3191V11.5531H83.4402C83.6681 11.5531 83.8605 11.7442 83.8818 11.9812V15.7198H82.8419V11.2243H80.7975V11.5454H80.8973C81.1395 11.5454 81.3389 11.7595 81.3389 12.0194V15.7121H79.5938V16.7213H89.3666V15.7121H88.0702L88.0773 15.7198Z" fill="#6B7684"/>
<path d="M32.4993 6.37562H32.7842C33.0193 6.38327 33.2116 6.59734 33.2116 6.84963V9.48726H31.1602V10.4353H33.2116V17.9965H34.7146V6.04688H32.5064V6.36798L32.4993 6.37562Z" fill="#6B7684"/>
<path d="M75.7109 6.04475V6.36586H75.9816C76.2238 6.36586 76.4232 6.57993 76.4232 6.83987V17.9867H77.9262V6.03711H75.7181L75.7109 6.04475Z" fill="#6B7684"/>
<path d="M90.1211 11.5742V12.5834H92.7566V14.0589H91.2822V15.0681H97.2014V17.9886H98.7044V14.0666H97.2655V12.591H99.901V11.5819H90.1282L90.1211 11.5742ZM95.7625 14.0589H94.2596V12.5834H95.7625V14.0589Z" fill="#6B7684"/>
<path d="M95.0096 11.0848C96.6265 11.0848 97.9372 9.89213 97.9372 8.42423C97.9372 6.95634 96.6194 5.76367 95.0096 5.76367C93.3998 5.76367 92.082 6.95634 92.082 8.42423C92.082 9.89213 93.3998 11.0848 95.0096 11.0848ZM95.0096 6.73462C95.8074 6.73462 96.4556 7.49151 96.4556 8.42423C96.4556 9.35696 95.8074 10.1138 95.0096 10.1138C94.2118 10.1138 93.5636 9.35696 93.5636 8.42423C93.5636 7.49151 94.2118 6.73462 95.0096 6.73462Z" fill="#6B7684"/>
<path d="M48.4805 14.939H54.2216V17.8825H55.7246V13.9375H48.4805V14.939Z" fill="#6B7684"/>
<path d="M57.0423 12.0176H47.2695V13.0262H57.0423V12.0176Z" fill="#6B7684"/>
<path d="M41.17 11.0246C42.7584 11.0246 44.0548 9.85491 44.0548 8.41759C44.0548 6.98028 42.7584 5.81055 41.17 5.81055C39.5815 5.81055 38.2852 6.98028 38.2852 8.41759C38.2852 9.85491 39.5815 11.0246 41.17 11.0246ZM41.17 6.66682C41.9393 6.66682 42.5661 7.45428 42.5661 8.41759C42.5661 9.3809 41.9393 10.1684 41.17 10.1684C40.4007 10.1684 39.7739 9.3809 39.7739 8.41759C39.7739 7.45428 40.4007 6.66682 41.17 6.66682Z" fill="#6B7684"/>
<path d="M36.2656 12.5966H40.4041V13.4376H37.4979V14.4467H43.1251V15.2036H37.3483V15.5247H37.3911C37.6332 15.5247 37.8327 15.7388 37.8327 15.9987V16.725C37.8327 17.4131 38.3598 17.9789 39.0009 17.9789H44.7135V16.9773H39.3285V16.2128H44.6281V13.4376H41.9071V12.5966H46.0456V11.5645H36.2727V12.5966H36.2656Z" fill="#6B7684"/>
<path d="M61.977 15.8243H67.07V12.8809H60.1535V13.89H65.5741V14.8151H60.0039V15.1362H60.0466C60.2746 15.1362 60.4598 15.3197 60.4883 15.5567V16.4971C60.4883 17.1852 61.0154 17.7509 61.6565 17.7509H67.1626V16.7494H61.9841V15.8167L61.977 15.8243Z" fill="#6B7684"/>
<path d="M48.4209 7.07033V9.84557C48.4209 10.5337 48.9338 11.0994 49.582 11.0994H55.9714V10.1667H49.931V9.14985H55.7862V8.21713H49.931V7.2003H55.9714V6.26758H47.8867V6.58868H47.9793C48.2215 6.58868 48.4209 6.80275 48.4209 7.06269V7.07033Z" fill="#6B7684"/>
<path d="M29.5241 6.45898V8.82138C29.5241 11.4514 30.8489 12.9116 32.3092 13.4774L31.7607 14.2113C30.564 13.8596 29.289 12.9651 28.7405 11.8489C28.192 12.9651 26.917 13.8596 25.7203 14.2113L25.1719 13.4774C26.6321 12.9116 27.957 11.4514 27.957 8.82138V7.25409C27.957 6.99415 27.7575 6.78009 27.5154 6.78009H27.38V6.45898H29.5312H29.5241Z" fill="#6B7684"/>
<path d="M72.7272 6.45898V8.82138C72.7272 11.4514 74.0521 12.9116 75.5123 13.4774L74.9638 14.2113C73.7671 13.8596 72.4921 12.9651 71.9436 11.8489C71.3952 12.9651 70.1201 13.8596 68.9235 14.2113L68.375 13.4774C69.8352 12.9116 71.1601 11.4514 71.1601 8.82138V7.25409C71.1601 6.99415 70.9607 6.78009 70.7185 6.78009H70.5831V6.45898H72.7343H72.7272Z" fill="#6B7684"/>
<path d="M107.792 6.04297V6.36407H108.062C108.304 6.36407 108.504 6.57814 108.504 6.83808V8.94818H106.566V9.95736H108.504V12.5644H110V6.05061H107.792V6.04297Z" fill="#6B7684"/>
<path d="M106.772 12.7656C105.091 12.7656 103.73 13.9965 103.73 15.5026C103.73 17.0088 105.098 18.2397 106.772 18.2397C108.446 18.2397 109.814 17.0088 109.814 15.5026C109.814 13.9965 108.446 12.7656 106.772 12.7656ZM106.772 17.3222C105.924 17.3222 105.241 16.5042 105.241 15.5026C105.241 14.5011 105.931 13.6831 106.772 13.6831C107.613 13.6831 108.303 14.5011 108.303 15.5026C108.303 16.5042 107.613 17.3222 106.772 17.3222Z" fill="#6B7684"/>
<path d="M107.369 11.3276C107.219 11.3047 104.854 10.6701 104.783 8.25419H107.013V7.24501H104.755V5.94531H102.71V6.26641H102.81C103.038 6.26641 103.23 6.45755 103.252 6.69455V7.23737H100.994V8.24655H103.223C103.152 10.6319 100.837 11.2817 100.645 11.32L101.243 12.1151C102.14 11.9316 103.152 11.4729 104.007 10.3337C104.868 11.4805 105.88 11.9392 106.785 12.1227L107.376 11.3276H107.369Z" fill="#6B7684"/>
</svg>
