<svg width="85" height="110" viewBox="0 0 85 110" fill="none" xmlns="http://www.w3.org/2000/svg">
<mask id="path-1-outside-1_581_38763" maskUnits="userSpaceOnUse" x="-1" y="-1" width="87" height="112" fill="black">
<rect fill="white" x="-1" y="-1" width="87" height="112"/>
<path d="M61.5039 32.2676C60.625 23.8447 53.96 18.9375 43.1934 18.9375C32.0605 18.9375 25.835 24.0645 25.7617 31.0957C25.6885 38.7861 33.5986 42.2285 42.7539 44.2793L52.2754 46.623C70.4395 50.7979 83.9893 60.0264 84.0625 77.6777C83.9893 97.0869 68.9014 109.538 43.0469 109.465C17.4121 109.538 1.0791 97.6729 0.419922 74.8945H21.8066C22.5391 85.5879 31.0352 91.0078 42.7539 91.0078C54.3262 91.0078 61.7969 85.5879 61.7969 77.6777C61.7969 70.4268 55.2051 67.0576 43.6328 64.2012L32.0605 61.418C14.1895 57.0234 3.20312 48.0879 3.20312 32.5605C3.12988 13.2979 20.1221 0.480469 43.3398 0.480469C66.8506 0.480469 82.3047 13.5176 82.5977 32.2676H61.5039Z"/>
</mask>
<path d="M61.5039 32.2676C60.625 23.8447 53.96 18.9375 43.1934 18.9375C32.0605 18.9375 25.835 24.0645 25.7617 31.0957C25.6885 38.7861 33.5986 42.2285 42.7539 44.2793L52.2754 46.623C70.4395 50.7979 83.9893 60.0264 84.0625 77.6777C83.9893 97.0869 68.9014 109.538 43.0469 109.465C17.4121 109.538 1.0791 97.6729 0.419922 74.8945H21.8066C22.5391 85.5879 31.0352 91.0078 42.7539 91.0078C54.3262 91.0078 61.7969 85.5879 61.7969 77.6777C61.7969 70.4268 55.2051 67.0576 43.6328 64.2012L32.0605 61.418C14.1895 57.0234 3.20312 48.0879 3.20312 32.5605C3.12988 13.2979 20.1221 0.480469 43.3398 0.480469C66.8506 0.480469 82.3047 13.5176 82.5977 32.2676H61.5039Z" fill="#222222"/>
<path d="M61.5039 32.2676L60.5093 32.3714L60.6028 33.2676H61.5039V32.2676ZM25.7617 31.0957L24.7618 31.0853L24.7618 31.0862L25.7617 31.0957ZM42.7539 44.2793L42.9929 43.3083L42.9827 43.3058L42.9725 43.3035L42.7539 44.2793ZM52.2754 46.623L52.0364 47.5941L52.0439 47.5959L52.0514 47.5976L52.2754 46.623ZM84.0625 77.6777L85.0625 77.6815L85.0625 77.6736L84.0625 77.6777ZM43.0469 109.465L43.0497 108.465L43.044 108.465L43.0469 109.465ZM0.419922 74.8945V73.8945H-0.609436L-0.579659 74.9235L0.419922 74.8945ZM21.8066 74.8945L22.8043 74.8262L22.7405 73.8945H21.8066V74.8945ZM43.6328 64.2012L43.8725 63.2303L43.8666 63.2289L43.6328 64.2012ZM32.0605 61.418L31.8218 62.3891L31.8267 62.3902L32.0605 61.418ZM3.20312 32.5605H4.20313L4.20312 32.5567L3.20312 32.5605ZM82.5977 32.2676V33.2676H83.6134L83.5975 32.252L82.5977 32.2676ZM62.4985 32.1638C62.0318 27.691 60.0123 24.0943 56.6462 21.6364C53.3036 19.1955 48.7178 17.9375 43.1934 17.9375V19.9375C48.4355 19.9375 52.5656 21.1331 55.4668 23.2516C58.3446 25.353 60.0971 28.4213 60.5093 32.3714L62.4985 32.1638ZM43.1934 17.9375C37.4863 17.9375 32.9185 19.2502 29.7402 21.5724C26.5362 23.9135 24.8018 27.2446 24.7618 31.0853L26.7617 31.1061C26.7949 27.9155 28.2099 25.1675 30.9202 23.1873C33.6562 21.1882 37.7676 19.9375 43.1934 19.9375V17.9375ZM24.7618 31.0862C24.7211 35.3554 26.9289 38.4222 30.2419 40.634C33.5126 42.8177 37.9269 44.2228 42.5353 45.2551L42.9725 43.3035C38.4256 42.285 34.3072 40.9435 31.3524 38.9707C28.4397 37.0261 26.7291 34.5264 26.7617 31.1052L24.7618 31.0862ZM42.5149 45.2503L52.0364 47.5941L52.5144 45.652L42.9929 43.3083L42.5149 45.2503ZM52.0514 47.5976C61.0466 49.6651 68.795 52.9628 74.2888 57.8442C79.7495 62.6963 83.0271 69.1486 83.0625 77.6819L85.0625 77.6736C85.0247 68.5555 81.4907 61.5679 75.6172 56.3491C69.7768 51.1597 61.6682 47.7558 52.4994 45.6485L52.0514 47.5976ZM83.0625 77.674C83.027 87.0955 79.3603 94.7641 72.6035 100.092C65.8201 105.441 55.8286 108.501 43.0497 108.465L43.044 110.465C56.1196 110.502 66.5993 107.373 73.8418 101.662C81.1109 95.9307 85.0248 87.6692 85.0625 77.6815L83.0625 77.674ZM43.044 108.465C30.3666 108.501 20.122 105.583 12.9863 99.9634C5.88002 94.3667 1.74173 86.0003 1.4195 74.8656L-0.579659 74.9235C-0.242707 86.5671 4.1151 95.5225 11.7488 101.535C19.3531 107.524 30.0924 110.502 43.0497 110.465L43.044 108.465ZM0.419922 75.8945H21.8066V73.8945H0.419922V75.8945ZM20.809 74.9629C21.1943 80.5887 23.6396 84.8938 27.5701 87.7683C31.4716 90.6217 36.7536 92.0078 42.7539 92.0078V90.0078C37.0355 90.0078 32.21 88.684 28.7507 86.154C25.3204 83.6453 23.1514 79.8937 22.8043 74.8262L20.809 74.9629ZM42.7539 92.0078C48.683 92.0078 53.6638 90.6209 57.1924 88.1255C60.7461 85.6124 62.7969 81.9875 62.7969 77.6777H60.7969C60.7969 81.2781 59.1123 84.3182 56.0376 86.4926C52.9378 88.6847 48.3971 90.0078 42.7539 90.0078V92.0078ZM62.7969 77.6777C62.7969 73.666 60.936 70.7233 57.617 68.4648C54.3645 66.2515 49.6724 64.6619 43.8725 63.2303L43.3932 65.172C49.1655 66.5968 53.5554 68.1201 56.4919 70.1182C59.3618 72.0712 60.7969 74.4385 60.7969 77.6777H62.7969ZM43.8666 63.2289L32.2944 60.4457L31.8267 62.3902L43.399 65.1734L43.8666 63.2289ZM32.2993 60.4469C23.4542 58.2719 16.4251 54.9979 11.6184 50.4385C6.84234 45.9083 4.20312 40.0573 4.20312 32.5605H2.20312C2.20312 40.5911 5.05708 46.9716 10.242 51.8896C15.3962 56.7785 22.7958 60.1695 31.8218 62.389L32.2993 60.4469ZM4.20312 32.5567C4.16773 23.25 8.24322 15.5154 15.1553 10.0832C22.0853 4.63693 31.9063 1.48047 43.3398 1.48047V-0.519531C31.5556 -0.519531 21.2716 2.7327 13.9194 8.51075C6.54926 14.303 2.16528 22.6084 2.20313 32.5644L4.20312 32.5567ZM43.3398 1.48047C54.9161 1.48047 64.4179 4.68958 71.0417 10.1163C77.6514 15.5315 81.4559 23.2003 81.5978 32.2832L83.5975 32.252C83.4465 22.5849 79.3774 14.3601 72.3092 8.56923C65.255 2.78991 55.2743 -0.519531 43.3398 -0.519531V1.48047ZM82.5977 31.2676H61.5039V33.2676H82.5977V31.2676Z" fill="#CCCCCC" mask="url(#path-1-outside-1_581_38763)"/>
</svg>
